<?xml version="1.0" encoding="UTF-8" standalone="no"?>
<!DOCTYPE svg PUBLIC "-//W3C//DTD SVG 1.0//EN" "http://www.w3.org/TR/2001/PR-SVG-20010719/DTD/svg10.dtd">
<svg width="57cm" height="34cm" viewBox="101 -134 1133 680" xmlns="http://www.w3.org/2000/svg" xmlns:xlink="http://www.w3.org/1999/xlink">
  <g>
    <rect style="fill: #ffffff" x="244.022" y="60.1667" width="40.2" height="38"/>
    <rect style="fill: none; fill-opacity:0; stroke-width: 2; stroke: #000000" x="244.022" y="60.1667" width="40.2" height="38"/>
    <text font-size="12.8" style="fill: #000000;text-anchor:middle;font-family:sans-serif;font-style:normal;font-weight:normal" x="264.122" y="83.9667">
      <tspan x="264.122" y="83.9667">E 5</tspan>
    </text>
  </g>
  <g>
    <rect style="fill: #ffffff" x="202.493" y="118.205" width="41.7" height="38"/>
    <rect style="fill: none; fill-opacity:0; stroke-width: 2; stroke: #000000" x="202.493" y="118.205" width="41.7" height="38"/>
    <text font-size="12.8" style="fill: #000000;text-anchor:middle;font-family:sans-serif;font-style:normal;font-weight:normal" x="223.343" y="142.005">
      <tspan x="223.343" y="142.005">D 4</tspan>
    </text>
  </g>
  <g>
    <line style="fill: none; fill-opacity:0; stroke-width: 2; stroke: #ff0000" x1="243.234" y1="99.1623" x2="230.376" y2="111.472"/>
    <polygon style="fill: #ff0000" points="224.958,116.659 228.724,106.132 230.376,111.472 235.639,113.355 "/>
    <polygon style="fill: none; fill-opacity:0; stroke-width: 2; stroke: #ff0000" points="224.958,116.659 228.724,106.132 230.376,111.472 235.639,113.355 "/>
  </g>
  <g>
    <line style="fill: none; fill-opacity:0; stroke-width: 2; stroke: #ff0000" x1="284.902" y1="99.1082" x2="297.246" y2="110.954"/>
    <polygon style="fill: #ff0000" points="302.657,116.147 291.98,112.83 297.246,110.954 298.904,105.615 "/>
    <polygon style="fill: none; fill-opacity:0; stroke-width: 2; stroke: #ff0000" points="302.657,116.147 291.98,112.83 297.246,110.954 298.904,105.615 "/>
  </g>
  <text font-size="12.8" style="fill: #000000;text-anchor:start;font-family:sans-serif;font-style:normal;font-weight:normal" x="101.536" y="-53.6486">
    <tspan x="101.536" y="-53.6486">向右插入 S 10|</tspan>
    <tspan x="101.536" y="-37.6486">新值最大</tspan>
  </text>
  <text font-size="12.7998" style="fill: #000000;text-anchor:start;font-family:sans-serif;font-style:normal;font-weight:normal" x="230" y="-106.5">
    <tspan x="230" y="-106.5">为了简便, 插入时直接使用红色链接</tspan>
  </text>
  <g>
    <rect style="fill: #ffffff" x="245.403" y="-67.2197" width="40.2" height="38"/>
    <rect style="fill: none; fill-opacity:0; stroke-width: 2; stroke: #000000" x="245.403" y="-67.2197" width="40.2" height="38"/>
    <text font-size="12.8" style="fill: #000000;text-anchor:middle;font-family:sans-serif;font-style:normal;font-weight:normal" x="265.503" y="-43.4197">
      <tspan x="265.503" y="-43.4197">E 5</tspan>
    </text>
  </g>
  <g>
    <rect style="fill: #ffffff" x="197.404" y="1.385" width="41.7" height="38"/>
    <rect style="fill: none; fill-opacity:0; stroke-width: 2; stroke: #000000" x="197.404" y="1.385" width="41.7" height="38"/>
    <text font-size="12.8" style="fill: #000000;text-anchor:middle;font-family:sans-serif;font-style:normal;font-weight:normal" x="218.254" y="25.185">
      <tspan x="218.254" y="25.185">D 4</tspan>
    </text>
  </g>
  <g>
    <line style="fill: none; fill-opacity:0; stroke-width: 2; stroke: #ff0000" x1="245.403" y1="-48.2197" x2="222.928" y2="-7.1556"/>
    <polygon style="fill: #ff0000" points="219.328,-0.576509 219.743,-11.7491 222.928,-7.1556 228.515,-6.94812 "/>
    <polygon style="fill: none; fill-opacity:0; stroke-width: 2; stroke: #ff0000" points="219.328,-0.576509 219.743,-11.7491 222.928,-7.1556 228.515,-6.94812 "/>
  </g>
  <g>
    <line style="fill: none; fill-opacity:0; stroke-width: 2; stroke: #000000" x1="279.968" y1="-28.2225" x2="292.94" y2="-10.2891"/>
    <polygon style="fill: #000000" points="297.335,-4.21221 287.423,-9.38426 292.94,-10.2891 295.526,-15.2451 "/>
    <polygon style="fill: none; fill-opacity:0; stroke-width: 2; stroke: #000000" points="297.335,-4.21221 287.423,-9.38426 292.94,-10.2891 295.526,-15.2451 "/>
  </g>
  <g>
    <rect style="fill: #ffffff" x="289.536" y="-1.40321" width="47.15" height="38"/>
    <rect style="fill: none; fill-opacity:0; stroke-width: 2; stroke: #000000" x="289.536" y="-1.40321" width="47.15" height="38"/>
    <text font-size="12.8" style="fill: #000000;text-anchor:middle;font-family:sans-serif;font-style:normal;font-weight:normal" x="313.111" y="22.3968">
      <tspan x="313.111" y="22.3968">S 10</tspan>
    </text>
  </g>
  <g>
    <rect style="fill: #ffffff" x="292.483" y="117.695" width="47.15" height="38"/>
    <rect style="fill: none; fill-opacity:0; stroke-width: 2; stroke: #000000" x="292.483" y="117.695" width="47.15" height="38"/>
    <text font-size="12.8" style="fill: #000000;text-anchor:middle;font-family:sans-serif;font-style:normal;font-weight:normal" x="316.058" y="141.495">
      <tspan x="316.058" y="141.495">S 10</tspan>
    </text>
  </g>
  <g>
    <rect style="fill: #ffffff" x="241.268" y="189.101" width="40.2" height="38"/>
    <rect style="fill: none; fill-opacity:0; stroke-width: 2; stroke: #000000" x="241.268" y="189.101" width="40.2" height="38"/>
    <text font-size="12.8" style="fill: #000000;text-anchor:middle;font-family:sans-serif;font-style:normal;font-weight:normal" x="261.368" y="212.901">
      <tspan x="261.368" y="212.901">E 5</tspan>
    </text>
  </g>
  <g>
    <rect style="fill: #ffffff" x="199.74" y="247.139" width="41.7" height="38"/>
    <rect style="fill: none; fill-opacity:0; stroke-width: 2; stroke: #000000" x="199.74" y="247.139" width="41.7" height="38"/>
    <text font-size="12.8" style="fill: #000000;text-anchor:middle;font-family:sans-serif;font-style:normal;font-weight:normal" x="220.59" y="270.939">
      <tspan x="220.59" y="270.939">D 4</tspan>
    </text>
  </g>
  <g>
    <line style="fill: none; fill-opacity:0; stroke-width: 2; stroke: #ff0000" x1="240.481" y1="228.096" x2="227.622" y2="240.406"/>
    <polygon style="fill: #ff0000" points="222.205,245.592 225.971,235.065 227.622,240.406 232.886,242.289 "/>
    <polygon style="fill: none; fill-opacity:0; stroke-width: 2; stroke: #ff0000" points="222.205,245.592 225.971,235.065 227.622,240.406 232.886,242.289 "/>
  </g>
  <g>
    <line style="fill: none; fill-opacity:0; stroke-width: 2; stroke: #000000" x1="282.149" y1="228.042" x2="294.492" y2="239.888"/>
    <polygon style="fill: #000000" points="299.904,245.081 289.227,241.764 294.492,239.888 296.151,234.549 "/>
    <polygon style="fill: none; fill-opacity:0; stroke-width: 2; stroke: #000000" points="299.904,245.081 289.227,241.764 294.492,239.888 296.151,234.549 "/>
  </g>
  <g>
    <rect style="fill: #ffffff" x="289.73" y="246.629" width="47.15" height="38"/>
    <rect style="fill: none; fill-opacity:0; stroke-width: 2; stroke: #000000" x="289.73" y="246.629" width="47.15" height="38"/>
    <text font-size="12.8" style="fill: #000000;text-anchor:middle;font-family:sans-serif;font-style:normal;font-weight:normal" x="313.305" y="270.429">
      <tspan x="313.305" y="270.429">S 10</tspan>
    </text>
  </g>
  <text font-size="12.7998" style="fill: #000000;text-anchor:start;font-family:sans-serif;font-style:normal;font-weight:normal" x="310.517" y="201.903">
    <tspan x="310.517" y="201.903">红色变为黑色</tspan>
    <tspan x="310.517" y="217.903"></tspan>
  </text>
  <g>
    <line style="fill: none; fill-opacity:0; stroke-width: 2; stroke: #000000" x1="322.083" y1="205.759" x2="302.697" y2="221.268"/>
    <polygon style="fill: #000000" points="296.841,225.953 301.526,215.801 302.697,221.268 307.773,223.61 "/>
    <polygon style="fill: none; fill-opacity:0; stroke-width: 2; stroke: #000000" points="296.841,225.953 301.526,215.801 302.697,221.268 307.773,223.61 "/>
  </g>
  <g>
    <rect style="fill: #ffffff" x="638.232" y="-128.068" width="40.2" height="38"/>
    <rect style="fill: none; fill-opacity:0; stroke-width: 2; stroke: #000000" x="638.232" y="-128.068" width="40.2" height="38"/>
    <text font-size="12.8" style="fill: #000000;text-anchor:middle;font-family:sans-serif;font-style:normal;font-weight:normal" x="658.332" y="-104.268">
      <tspan x="658.332" y="-104.268">E 5</tspan>
    </text>
  </g>
  <g>
    <rect style="fill: #ffffff" x="590.233" y="-59.4636" width="41.7" height="38"/>
    <rect style="fill: none; fill-opacity:0; stroke-width: 2; stroke: #000000" x="590.233" y="-59.4636" width="41.7" height="38"/>
    <text font-size="12.8" style="fill: #000000;text-anchor:middle;font-family:sans-serif;font-style:normal;font-weight:normal" x="611.083" y="-35.6636">
      <tspan x="611.083" y="-35.6636">C 3</tspan>
    </text>
  </g>
  <g>
    <line style="fill: none; fill-opacity:0; stroke-width: 2; stroke: #ff0000" x1="638.232" y1="-109.068" x2="615.758" y2="-68.0042"/>
    <polygon style="fill: #ff0000" points="612.157,-61.4251 612.572,-72.5978 615.758,-68.0042 621.344,-67.7967 "/>
    <polygon style="fill: none; fill-opacity:0; stroke-width: 2; stroke: #ff0000" points="612.157,-61.4251 612.572,-72.5978 615.758,-68.0042 621.344,-67.7967 "/>
  </g>
  <g>
    <line style="fill: none; fill-opacity:0; stroke-width: 2; stroke: #000000" x1="672.797" y1="-89.0711" x2="685.769" y2="-71.1377"/>
    <polygon style="fill: #000000" points="690.165,-65.0608 680.253,-70.2329 685.769,-71.1377 688.355,-76.0937 "/>
    <polygon style="fill: none; fill-opacity:0; stroke-width: 2; stroke: #000000" points="690.165,-65.0608 680.253,-70.2329 685.769,-71.1377 688.355,-76.0937 "/>
  </g>
  <g>
    <rect style="fill: #ffffff" x="682.365" y="-62.2518" width="47.15" height="38"/>
    <rect style="fill: none; fill-opacity:0; stroke-width: 2; stroke: #000000" x="682.365" y="-62.2518" width="47.15" height="38"/>
    <text font-size="12.8" style="fill: #000000;text-anchor:middle;font-family:sans-serif;font-style:normal;font-weight:normal" x="705.94" y="-38.4518">
      <tspan x="705.94" y="-38.4518">S 10</tspan>
    </text>
  </g>
  <text font-size="12.7998" style="fill: #000000;text-anchor:start;font-family:sans-serif;font-style:normal;font-weight:normal" x="687.886" y="230.245">
    <tspan x="687.886" y="230.245">红色变为黑色</tspan>
    <tspan x="687.886" y="246.245"></tspan>
  </text>
  <g>
    <line style="fill: none; fill-opacity:0; stroke-width: 2; stroke: #000000" x1="699.453" y1="234.1" x2="680.067" y2="249.609"/>
    <polygon style="fill: #000000" points="674.21,254.294 678.896,244.143 680.067,249.609 685.143,251.952 "/>
    <polygon style="fill: none; fill-opacity:0; stroke-width: 2; stroke: #000000" points="674.21,254.294 678.896,244.143 680.067,249.609 685.143,251.952 "/>
  </g>
  <text font-size="12.8" style="fill: #000000;text-anchor:start;font-family:sans-serif;font-style:normal;font-weight:normal" x="467.341" y="-53.0785">
    <tspan x="467.341" y="-53.0785">向右插入 B 2</tspan>
    <tspan x="467.341" y="-37.0785">新值最小</tspan>
  </text>
  <g>
    <rect style="fill: #ffffff" x="535.53" y="3.93276" width="41.7" height="38"/>
    <rect style="fill: none; fill-opacity:0; stroke-width: 2; stroke: #000000" x="535.53" y="3.93276" width="41.7" height="38"/>
    <text font-size="12.8" style="fill: #000000;text-anchor:middle;font-family:sans-serif;font-style:normal;font-weight:normal" x="556.38" y="27.7328">
      <tspan x="556.38" y="27.7328">B 2</tspan>
    </text>
  </g>
  <g>
    <line style="fill: none; fill-opacity:0; stroke-width: 2; stroke: #ff0000" x1="590.233" y1="-21.4636" x2="577.533" y2="-4.8072"/>
    <polygon style="fill: #ff0000" points="572.985,1.15677 575.072,-9.82695 577.533,-4.8072 583.024,-3.76342 "/>
    <polygon style="fill: none; fill-opacity:0; stroke-width: 2; stroke: #ff0000" points="572.985,1.15677 575.072,-9.82695 577.533,-4.8072 583.024,-3.76342 "/>
  </g>
  <g>
    <rect style="fill: #ffffff" x="676.221" y="91.8327" width="40.2" height="38"/>
    <rect style="fill: none; fill-opacity:0; stroke-width: 2; stroke: #000000" x="676.221" y="91.8327" width="40.2" height="38"/>
    <text font-size="12.8" style="fill: #000000;text-anchor:middle;font-family:sans-serif;font-style:normal;font-weight:normal" x="696.321" y="115.633">
      <tspan x="696.321" y="115.633">E 5</tspan>
    </text>
  </g>
  <g>
    <rect style="fill: #ffffff" x="617.465" y="32.6529" width="41.7" height="38"/>
    <rect style="fill: none; fill-opacity:0; stroke-width: 2; stroke: #000000" x="617.465" y="32.6529" width="41.7" height="38"/>
    <text font-size="12.8" style="fill: #000000;text-anchor:middle;font-family:sans-serif;font-style:normal;font-weight:normal" x="638.315" y="56.4529">
      <tspan x="638.315" y="56.4529">C 3</tspan>
    </text>
  </g>
  <g>
    <line style="fill: none; fill-opacity:0; stroke-width: 2; stroke: #ff0000" x1="696.321" y1="91.8327" x2="668.128" y2="72.3035"/>
    <polygon style="fill: #ff0000" points="661.962,68.0328 673.03,69.6168 668.128,72.3035 667.336,77.8373 "/>
    <polygon style="fill: none; fill-opacity:0; stroke-width: 2; stroke: #ff0000" points="661.962,68.0328 673.03,69.6168 668.128,72.3035 667.336,77.8373 "/>
  </g>
  <g>
    <line style="fill: none; fill-opacity:0; stroke-width: 2; stroke: #000000" x1="715.994" y1="130.817" x2="737.589" y2="152.754"/>
    <polygon style="fill: #000000" points="742.85,158.099 732.272,154.48 737.589,152.754 739.398,147.465 "/>
    <polygon style="fill: none; fill-opacity:0; stroke-width: 2; stroke: #000000" points="742.85,158.099 732.272,154.48 737.589,152.754 739.398,147.465 "/>
  </g>
  <g>
    <rect style="fill: #ffffff" x="740.516" y="160.677" width="47.15" height="38"/>
    <rect style="fill: none; fill-opacity:0; stroke-width: 2; stroke: #000000" x="740.516" y="160.677" width="47.15" height="38"/>
    <text font-size="12.8" style="fill: #000000;text-anchor:middle;font-family:sans-serif;font-style:normal;font-weight:normal" x="764.091" y="184.477">
      <tspan x="764.091" y="184.477">S 10</tspan>
    </text>
  </g>
  <g>
    <rect style="fill: #ffffff" x="562.762" y="96.0492" width="41.7" height="38"/>
    <rect style="fill: none; fill-opacity:0; stroke-width: 2; stroke: #000000" x="562.762" y="96.0492" width="41.7" height="38"/>
    <text font-size="12.8" style="fill: #000000;text-anchor:middle;font-family:sans-serif;font-style:normal;font-weight:normal" x="583.612" y="119.849">
      <tspan x="583.612" y="119.849">B 2</tspan>
    </text>
  </g>
  <g>
    <line style="fill: none; fill-opacity:0; stroke-width: 2; stroke: #ff0000" x1="617.465" y1="70.6529" x2="604.765" y2="87.3093"/>
    <polygon style="fill: #ff0000" points="600.217,93.2732 602.304,82.2895 604.765,87.3093 610.256,88.3531 "/>
    <polygon style="fill: none; fill-opacity:0; stroke-width: 2; stroke: #ff0000" points="600.217,93.2732 602.304,82.2895 604.765,87.3093 610.256,88.3531 "/>
  </g>
  <g>
    <line style="fill: none; fill-opacity:0; stroke-width: 2; stroke: #000000" x1="624.658" y1="-84.266" x2="739.864" y2="49.5931"/>
    <polygon style="fill: #000000" points="744.756,55.2776 734.443,50.9598 739.864,49.5931 742.023,44.4366 "/>
    <polygon style="fill: none; fill-opacity:0; stroke-width: 2; stroke: #000000" points="744.756,55.2776 734.443,50.9598 739.864,49.5931 742.023,44.4366 "/>
  </g>
  <g>
    <line style="fill: none; fill-opacity:0; stroke-width: 2; stroke: #000000" x1="678.223" y1="79.2961" x2="738.272" y2="55.152"/>
    <polygon style="fill: #000000" points="745.231,52.3541 737.818,60.7236 738.272,55.152 734.087,51.4455 "/>
    <polygon style="fill: none; fill-opacity:0; stroke-width: 2; stroke: #000000" points="745.231,52.3541 737.818,60.7236 738.272,55.152 734.087,51.4455 "/>
  </g>
  <text font-size="12.7998" style="fill: #000000;text-anchor:start;font-family:sans-serif;font-style:normal;font-weight:normal" x="754.939" y="60.2439">
    <tspan x="754.939" y="60.2439">右旋红色链接</tspan>
  </text>
  <g>
    <rect style="fill: #ffffff" x="659.854" y="274.495" width="40.2" height="38"/>
    <rect style="fill: none; fill-opacity:0; stroke-width: 2; stroke: #000000" x="659.854" y="274.495" width="40.2" height="38"/>
    <text font-size="12.8" style="fill: #000000;text-anchor:middle;font-family:sans-serif;font-style:normal;font-weight:normal" x="679.954" y="298.295">
      <tspan x="679.954" y="298.295">E 5</tspan>
    </text>
  </g>
  <g>
    <rect style="fill: #ffffff" x="610.612" y="211.747" width="41.7" height="38"/>
    <rect style="fill: none; fill-opacity:0; stroke-width: 2; stroke: #000000" x="610.612" y="211.747" width="41.7" height="38"/>
    <text font-size="12.8" style="fill: #000000;text-anchor:middle;font-family:sans-serif;font-style:normal;font-weight:normal" x="631.462" y="235.547">
      <tspan x="631.462" y="235.547">C 3</tspan>
    </text>
  </g>
  <g>
    <line style="fill: none; fill-opacity:0; stroke-width: 2; stroke: #000000" x1="641.887" y1="249.747" x2="671.791" y2="269.188"/>
    <polygon style="fill: #000000" points="678.079,273.276 666.97,272.018 671.791,269.188 672.421,263.634 "/>
    <polygon style="fill: none; fill-opacity:0; stroke-width: 2; stroke: #000000" points="678.079,273.276 666.97,272.018 671.791,269.188 672.421,263.634 "/>
  </g>
  <g>
    <line style="fill: none; fill-opacity:0; stroke-width: 2; stroke: #000000" x1="701.058" y1="311.32" x2="726.177" y2="332.536"/>
    <polygon style="fill: #000000" points="731.907,337.376 721.041,334.743 726.177,332.536 727.494,327.103 "/>
    <polygon style="fill: none; fill-opacity:0; stroke-width: 2; stroke: #000000" points="731.907,337.376 721.041,334.743 726.177,332.536 727.494,327.103 "/>
  </g>
  <g>
    <rect style="fill: #ffffff" x="733.663" y="339.771" width="47.15" height="38"/>
    <rect style="fill: none; fill-opacity:0; stroke-width: 2; stroke: #000000" x="733.663" y="339.771" width="47.15" height="38"/>
    <text font-size="12.8" style="fill: #000000;text-anchor:middle;font-family:sans-serif;font-style:normal;font-weight:normal" x="757.238" y="363.571">
      <tspan x="757.238" y="363.571">S 10</tspan>
    </text>
  </g>
  <g>
    <rect style="fill: #ffffff" x="555.909" y="275.144" width="41.7" height="38"/>
    <rect style="fill: none; fill-opacity:0; stroke-width: 2; stroke: #000000" x="555.909" y="275.144" width="41.7" height="38"/>
    <text font-size="12.8" style="fill: #000000;text-anchor:middle;font-family:sans-serif;font-style:normal;font-weight:normal" x="576.759" y="298.944">
      <tspan x="576.759" y="298.944">B 2</tspan>
    </text>
  </g>
  <g>
    <line style="fill: none; fill-opacity:0; stroke-width: 2; stroke: #ff0000" x1="610.612" y1="249.747" x2="597.911" y2="266.404"/>
    <polygon style="fill: #ff0000" points="593.364,272.368 595.451,261.384 597.911,266.404 603.403,267.448 "/>
    <polygon style="fill: none; fill-opacity:0; stroke-width: 2; stroke: #ff0000" points="593.364,272.368 595.451,261.384 597.911,266.404 603.403,267.448 "/>
  </g>
  <g>
    <rect style="fill: #ffffff" x="1104.27" y="-132.791" width="40.2" height="38"/>
    <rect style="fill: none; fill-opacity:0; stroke-width: 2; stroke: #000000" x="1104.27" y="-132.791" width="40.2" height="38"/>
    <text font-size="12.8" style="fill: #000000;text-anchor:middle;font-family:sans-serif;font-style:normal;font-weight:normal" x="1124.37" y="-108.991">
      <tspan x="1124.37" y="-108.991">E 5</tspan>
    </text>
  </g>
  <g>
    <rect style="fill: #ffffff" x="1056.27" y="-64.1868" width="41.7" height="38"/>
    <rect style="fill: none; fill-opacity:0; stroke-width: 2; stroke: #000000" x="1056.27" y="-64.1868" width="41.7" height="38"/>
    <text font-size="12.8" style="fill: #000000;text-anchor:middle;font-family:sans-serif;font-style:normal;font-weight:normal" x="1077.12" y="-40.3868">
      <tspan x="1077.12" y="-40.3868">C 3</tspan>
    </text>
  </g>
  <g>
    <line style="fill: none; fill-opacity:0; stroke-width: 2; stroke: #ff0000" x1="1104.27" y1="-113.791" x2="1081.79" y2="-72.7274"/>
    <polygon style="fill: #ff0000" points="1078.19,-66.1483 1078.61,-77.3209 1081.79,-72.7274 1087.38,-72.5199 "/>
    <polygon style="fill: none; fill-opacity:0; stroke-width: 2; stroke: #ff0000" points="1078.19,-66.1483 1078.61,-77.3209 1081.79,-72.7274 1087.38,-72.5199 "/>
  </g>
  <g>
    <line style="fill: none; fill-opacity:0; stroke-width: 2; stroke: #000000" x1="1138.83" y1="-93.7942" x2="1151.81" y2="-75.8608"/>
    <polygon style="fill: #000000" points="1156.2,-69.784 1146.29,-74.956 1151.81,-75.8608 1154.39,-80.8169 "/>
    <polygon style="fill: none; fill-opacity:0; stroke-width: 2; stroke: #000000" points="1156.2,-69.784 1146.29,-74.956 1151.81,-75.8608 1154.39,-80.8169 "/>
  </g>
  <g>
    <rect style="fill: #ffffff" x="1148.4" y="-66.975" width="47.15" height="38"/>
    <rect style="fill: none; fill-opacity:0; stroke-width: 2; stroke: #000000" x="1148.4" y="-66.975" width="47.15" height="38"/>
    <text font-size="12.8" style="fill: #000000;text-anchor:middle;font-family:sans-serif;font-style:normal;font-weight:normal" x="1171.98" y="-43.175">
      <tspan x="1171.98" y="-43.175">S 10</tspan>
    </text>
  </g>
  <text font-size="12.8" style="fill: #000000;text-anchor:start;font-family:sans-serif;font-style:normal;font-weight:normal" x="954.526" y="-36.3103">
    <tspan x="954.526" y="-36.3103">插入 D 4</tspan>
    <tspan x="954.526" y="-20.3103">新值在中间</tspan>
  </text>
  <g>
    <rect style="fill: #ffffff" x="1001.57" y="-0.790391" width="41.7" height="38"/>
    <rect style="fill: none; fill-opacity:0; stroke-width: 2; stroke: #000000" x="1001.57" y="-0.790391" width="41.7" height="38"/>
    <text font-size="12.8" style="fill: #000000;text-anchor:middle;font-family:sans-serif;font-style:normal;font-weight:normal" x="1022.42" y="23.0096">
      <tspan x="1022.42" y="23.0096">B 2</tspan>
    </text>
  </g>
  <g>
    <line style="fill: none; fill-opacity:0; stroke-width: 2; stroke: #000000" x1="1056.27" y1="-26.1868" x2="1043.57" y2="-9.53035"/>
    <polygon style="fill: #000000" points="1039.02,-3.56638 1041.11,-14.5501 1043.57,-9.53035 1049.06,-8.48657 "/>
    <polygon style="fill: none; fill-opacity:0; stroke-width: 2; stroke: #000000" points="1039.02,-3.56638 1041.11,-14.5501 1043.57,-9.53035 1049.06,-8.48657 "/>
  </g>
  <g>
    <rect style="fill: #ffffff" x="1100.31" y="-0.0991518" width="41.7" height="38"/>
    <rect style="fill: none; fill-opacity:0; stroke-width: 2; stroke: #000000" x="1100.31" y="-0.0991518" width="41.7" height="38"/>
    <text font-size="12.8" style="fill: #000000;text-anchor:middle;font-family:sans-serif;font-style:normal;font-weight:normal" x="1121.16" y="23.7008">
      <tspan x="1121.16" y="23.7008">D 4</tspan>
    </text>
  </g>
  <g>
    <line style="fill: none; fill-opacity:0; stroke-width: 2; stroke: #ff0000" x1="1097.97" y1="-26.1868" x2="1106.42" y2="-9.75807"/>
    <polygon style="fill: #ff0000" points="1109.85,-3.08862 1100.83,-9.69422 1106.42,-9.75807 1109.72,-14.2682 "/>
    <polygon style="fill: none; fill-opacity:0; stroke-width: 2; stroke: #ff0000" points="1109.85,-3.08862 1100.83,-9.69422 1106.42,-9.75807 1109.72,-14.2682 "/>
  </g>
  <g>
    <rect style="fill: #ffffff" x="1106.65" y="71.3819" width="40.2" height="38"/>
    <rect style="fill: none; fill-opacity:0; stroke-width: 2; stroke: #000000" x="1106.65" y="71.3819" width="40.2" height="38"/>
    <text font-size="12.8" style="fill: #000000;text-anchor:middle;font-family:sans-serif;font-style:normal;font-weight:normal" x="1126.75" y="95.1819">
      <tspan x="1126.75" y="95.1819">E 5</tspan>
    </text>
  </g>
  <g>
    <rect style="fill: #ffffff" x="958.765" y="204.203" width="41.7" height="38"/>
    <rect style="fill: none; fill-opacity:0; stroke-width: 2; stroke: #000000" x="958.765" y="204.203" width="41.7" height="38"/>
    <text font-size="12.8" style="fill: #000000;text-anchor:middle;font-family:sans-serif;font-style:normal;font-weight:normal" x="979.615" y="228.003">
      <tspan x="979.615" y="228.003">C 3</tspan>
    </text>
  </g>
  <g>
    <line style="fill: none; fill-opacity:0; stroke-width: 2; stroke: #ff0000" x1="1106.65" y1="90.3819" x2="1062.63" y2="138.815"/>
    <polygon style="fill: #ff0000" points="1057.59,144.365 1060.61,133.602 1062.63,138.815 1068.01,140.328 "/>
    <polygon style="fill: none; fill-opacity:0; stroke-width: 2; stroke: #ff0000" points="1057.59,144.365 1060.61,133.602 1062.63,138.815 1068.01,140.328 "/>
  </g>
  <g>
    <line style="fill: none; fill-opacity:0; stroke-width: 2; stroke: #000000" x1="1141.22" y1="110.379" x2="1154.19" y2="128.313"/>
    <polygon style="fill: #000000" points="1158.59,134.389 1148.68,129.217 1154.19,128.313 1156.78,123.356 "/>
    <polygon style="fill: none; fill-opacity:0; stroke-width: 2; stroke: #000000" points="1158.59,134.389 1148.68,129.217 1154.19,128.313 1156.78,123.356 "/>
  </g>
  <g>
    <rect style="fill: #ffffff" x="1150.79" y="137.198" width="47.15" height="38"/>
    <rect style="fill: none; fill-opacity:0; stroke-width: 2; stroke: #000000" x="1150.79" y="137.198" width="47.15" height="38"/>
    <text font-size="12.8" style="fill: #000000;text-anchor:middle;font-family:sans-serif;font-style:normal;font-weight:normal" x="1174.36" y="160.998">
      <tspan x="1174.36" y="160.998">S 10</tspan>
    </text>
  </g>
  <g>
    <rect style="fill: #ffffff" x="933.791" y="281.869" width="41.7" height="38"/>
    <rect style="fill: none; fill-opacity:0; stroke-width: 2; stroke: #000000" x="933.791" y="281.869" width="41.7" height="38"/>
    <text font-size="12.8" style="fill: #000000;text-anchor:middle;font-family:sans-serif;font-style:normal;font-weight:normal" x="954.641" y="305.669">
      <tspan x="954.641" y="305.669">B 2</tspan>
    </text>
  </g>
  <g>
    <line style="fill: none; fill-opacity:0; stroke-width: 2; stroke: #000000" x1="973.185" y1="243.198" x2="964.051" y2="271.606"/>
    <polygon style="fill: #000000" points="961.755,278.746 960.056,267.695 964.051,271.606 969.576,270.756 "/>
    <polygon style="fill: none; fill-opacity:0; stroke-width: 2; stroke: #000000" points="961.755,278.746 960.056,267.695 964.051,271.606 969.576,270.756 "/>
  </g>
  <g>
    <rect style="fill: #ffffff" x="1017.08" y="146.993" width="41.7" height="38"/>
    <rect style="fill: none; fill-opacity:0; stroke-width: 2; stroke: #000000" x="1017.08" y="146.993" width="41.7" height="38"/>
    <text font-size="12.8" style="fill: #000000;text-anchor:middle;font-family:sans-serif;font-style:normal;font-weight:normal" x="1037.93" y="170.793">
      <tspan x="1037.93" y="170.793">D 4</tspan>
    </text>
  </g>
  <g>
    <line style="fill: none; fill-opacity:0; stroke-width: 2; stroke: #ff0000" x1="999.944" y1="203.258" x2="1010.65" y2="192.757"/>
    <polygon style="fill: #ff0000" points="1016,187.504 1012.36,198.077 1010.65,192.757 1005.36,190.939 "/>
    <polygon style="fill: none; fill-opacity:0; stroke-width: 2; stroke: #ff0000" points="1016,187.504 1012.36,198.077 1010.65,192.757 1005.36,190.939 "/>
  </g>
  <g>
    <rect style="fill: #ffffff" x="1156.13" y="266.807" width="40.2" height="38"/>
    <rect style="fill: none; fill-opacity:0; stroke-width: 2; stroke: #000000" x="1156.13" y="266.807" width="40.2" height="38"/>
    <text font-size="12.8" style="fill: #000000;text-anchor:middle;font-family:sans-serif;font-style:normal;font-weight:normal" x="1176.23" y="290.607">
      <tspan x="1176.23" y="290.607">E 5</tspan>
    </text>
  </g>
  <g>
    <rect style="fill: #ffffff" x="1032.02" y="265.25" width="41.7" height="38"/>
    <rect style="fill: none; fill-opacity:0; stroke-width: 2; stroke: #000000" x="1032.02" y="265.25" width="41.7" height="38"/>
    <text font-size="12.8" style="fill: #000000;text-anchor:middle;font-family:sans-serif;font-style:normal;font-weight:normal" x="1052.87" y="289.05">
      <tspan x="1052.87" y="289.05">C 3</tspan>
    </text>
  </g>
  <g>
    <line style="fill: none; fill-opacity:0; stroke-width: 2; stroke: #ff0000" x1="1156.13" y1="285.807" x2="1132.39" y2="254.76"/>
    <polygon style="fill: #ff0000" points="1127.83,248.803 1137.88,253.708 1132.39,254.76 1129.93,259.784 "/>
    <polygon style="fill: none; fill-opacity:0; stroke-width: 2; stroke: #ff0000" points="1127.83,248.803 1137.88,253.708 1132.39,254.76 1129.93,259.784 "/>
  </g>
  <g>
    <line style="fill: none; fill-opacity:0; stroke-width: 2; stroke: #000000" x1="1184.94" y1="305.806" x2="1196.97" y2="333.402"/>
    <polygon style="fill: #000000" points="1199.96,340.278 1191.38,333.108 1196.97,333.402 1200.55,329.113 "/>
    <polygon style="fill: none; fill-opacity:0; stroke-width: 2; stroke: #000000" points="1199.96,340.278 1191.38,333.108 1196.97,333.402 1200.55,329.113 "/>
  </g>
  <g>
    <rect style="fill: #ffffff" x="1185.99" y="343.327" width="47.15" height="38"/>
    <rect style="fill: none; fill-opacity:0; stroke-width: 2; stroke: #000000" x="1185.99" y="343.327" width="47.15" height="38"/>
    <text font-size="12.8" style="fill: #000000;text-anchor:middle;font-family:sans-serif;font-style:normal;font-weight:normal" x="1209.57" y="367.127">
      <tspan x="1209.57" y="367.127">S 10</tspan>
    </text>
  </g>
  <g>
    <rect style="fill: #ffffff" x="1007.05" y="342.917" width="41.7" height="38"/>
    <rect style="fill: none; fill-opacity:0; stroke-width: 2; stroke: #000000" x="1007.05" y="342.917" width="41.7" height="38"/>
    <text font-size="12.8" style="fill: #000000;text-anchor:middle;font-family:sans-serif;font-style:normal;font-weight:normal" x="1027.9" y="366.717">
      <tspan x="1027.9" y="366.717">B 2</tspan>
    </text>
  </g>
  <g>
    <line style="fill: none; fill-opacity:0; stroke-width: 2; stroke: #000000" x1="1046.44" y1="304.245" x2="1037.31" y2="332.653"/>
    <polygon style="fill: #000000" points="1035.01,339.793 1033.32,328.743 1037.31,332.653 1042.84,331.804 "/>
    <polygon style="fill: none; fill-opacity:0; stroke-width: 2; stroke: #000000" points="1035.01,339.793 1033.32,328.743 1037.31,332.653 1042.84,331.804 "/>
  </g>
  <g>
    <rect style="fill: #ffffff" x="1090.34" y="208.041" width="41.7" height="38"/>
    <rect style="fill: none; fill-opacity:0; stroke-width: 2; stroke: #000000" x="1090.34" y="208.041" width="41.7" height="38"/>
    <text font-size="12.8" style="fill: #000000;text-anchor:middle;font-family:sans-serif;font-style:normal;font-weight:normal" x="1111.19" y="231.841">
      <tspan x="1111.19" y="231.841">D 4</tspan>
    </text>
  </g>
  <g>
    <line style="fill: none; fill-opacity:0; stroke-width: 2; stroke: #ff0000" x1="1073.2" y1="264.305" x2="1083.91" y2="253.804"/>
    <polygon style="fill: #ff0000" points="1089.26,248.552 1085.62,259.124 1083.91,253.804 1078.62,251.986 "/>
    <polygon style="fill: none; fill-opacity:0; stroke-width: 2; stroke: #ff0000" points="1089.26,248.552 1085.62,259.124 1083.91,253.804 1078.62,251.986 "/>
  </g>
  <g>
    <rect style="fill: #ffffff" x="1147.07" y="429.837" width="40.2" height="38"/>
    <rect style="fill: none; fill-opacity:0; stroke-width: 2; stroke: #000000" x="1147.07" y="429.837" width="40.2" height="38"/>
    <text font-size="12.8" style="fill: #000000;text-anchor:middle;font-family:sans-serif;font-style:normal;font-weight:normal" x="1167.17" y="453.637">
      <tspan x="1167.17" y="453.637">E 5</tspan>
    </text>
  </g>
  <g>
    <rect style="fill: #ffffff" x="1022.96" y="428.279" width="41.7" height="38"/>
    <rect style="fill: none; fill-opacity:0; stroke-width: 2; stroke: #000000" x="1022.96" y="428.279" width="41.7" height="38"/>
    <text font-size="12.8" style="fill: #000000;text-anchor:middle;font-family:sans-serif;font-style:normal;font-weight:normal" x="1043.81" y="452.079">
      <tspan x="1043.81" y="452.079">C 3</tspan>
    </text>
  </g>
  <g>
    <line style="fill: none; fill-opacity:0; stroke-width: 2; stroke: #000000" x1="1175.88" y1="468.835" x2="1187.91" y2="496.432"/>
    <polygon style="fill: #000000" points="1190.9,503.307 1182.32,496.137 1187.91,496.432 1191.49,492.143 "/>
    <polygon style="fill: none; fill-opacity:0; stroke-width: 2; stroke: #000000" points="1190.9,503.307 1182.32,496.137 1187.91,496.432 1191.49,492.143 "/>
  </g>
  <g>
    <rect style="fill: #ffffff" x="1176.93" y="506.356" width="47.15" height="38"/>
    <rect style="fill: none; fill-opacity:0; stroke-width: 2; stroke: #000000" x="1176.93" y="506.356" width="47.15" height="38"/>
    <text font-size="12.8" style="fill: #000000;text-anchor:middle;font-family:sans-serif;font-style:normal;font-weight:normal" x="1200.51" y="530.156">
      <tspan x="1200.51" y="530.156">S 10</tspan>
    </text>
  </g>
  <g>
    <rect style="fill: #ffffff" x="997.989" y="505.946" width="41.7" height="38"/>
    <rect style="fill: none; fill-opacity:0; stroke-width: 2; stroke: #000000" x="997.989" y="505.946" width="41.7" height="38"/>
    <text font-size="12.8" style="fill: #000000;text-anchor:middle;font-family:sans-serif;font-style:normal;font-weight:normal" x="1018.84" y="529.746">
      <tspan x="1018.84" y="529.746">B 2</tspan>
    </text>
  </g>
  <g>
    <line style="fill: none; fill-opacity:0; stroke-width: 2; stroke: #000000" x1="1037.38" y1="467.274" x2="1028.25" y2="495.682"/>
    <polygon style="fill: #000000" points="1025.95,502.822 1024.25,491.772 1028.25,495.682 1033.77,494.833 "/>
    <polygon style="fill: none; fill-opacity:0; stroke-width: 2; stroke: #000000" points="1025.95,502.822 1024.25,491.772 1028.25,495.682 1033.77,494.833 "/>
  </g>
  <g>
    <rect style="fill: #ffffff" x="1081.27" y="371.07" width="41.7" height="38"/>
    <rect style="fill: none; fill-opacity:0; stroke-width: 2; stroke: #000000" x="1081.27" y="371.07" width="41.7" height="38"/>
    <text font-size="12.8" style="fill: #000000;text-anchor:middle;font-family:sans-serif;font-style:normal;font-weight:normal" x="1102.12" y="394.87">
      <tspan x="1102.12" y="394.87">D 4</tspan>
    </text>
  </g>
  <g>
    <line style="fill: none; fill-opacity:0; stroke-width: 2; stroke: #ff0000" x1="1064.14" y1="427.334" x2="1074.85" y2="416.833"/>
    <polygon style="fill: #ff0000" points="1080.2,411.581 1076.56,422.153 1074.85,416.833 1069.56,415.015 "/>
    <polygon style="fill: none; fill-opacity:0; stroke-width: 2; stroke: #ff0000" points="1080.2,411.581 1076.56,422.153 1074.85,416.833 1069.56,415.015 "/>
  </g>
  <g>
    <line style="fill: none; fill-opacity:0; stroke-width: 2; stroke: #000000" x1="1123.72" y1="409.582" x2="1138.85" y2="423.249"/>
    <polygon style="fill: #000000" points="1144.41,428.277 1133.64,425.283 1138.85,423.249 1140.35,417.863 "/>
    <polygon style="fill: none; fill-opacity:0; stroke-width: 2; stroke: #000000" points="1144.41,428.277 1133.64,425.283 1138.85,423.249 1140.35,417.863 "/>
  </g>
</svg>
