<?xml version="1.0" encoding="UTF-8" standalone="no"?>
<!DOCTYPE svg PUBLIC "-//W3C//DTD SVG 1.0//EN" "http://www.w3.org/TR/2001/PR-SVG-20010719/DTD/svg10.dtd">
<svg width="24cm" height="14cm" viewBox="279 -9 461 269" xmlns="http://www.w3.org/2000/svg" xmlns:xlink="http://www.w3.org/1999/xlink">
  <g>
    <rect style="fill: none; fill-opacity:0; stroke-width: 0.02; stroke: #ffffff" x="340" y="60" width="40" height="40"/>
    <text font-size="12.8" style="fill: #000000;text-anchor:middle;font-family:sans-serif;font-style:normal;font-weight:normal" x="360" y="84.8">
      <tspan x="360" y="84.8">A</tspan>
    </text>
  </g>
  <g>
    <rect style="fill: none; fill-opacity:0; stroke-width: 0.02; stroke: #ffffff" x="380" y="60" width="40" height="40"/>
    <text font-size="12.8" style="fill: #000000;text-anchor:middle;font-family:sans-serif;font-style:normal;font-weight:normal" x="400" y="84.8">
      <tspan x="400" y="84.8">B</tspan>
    </text>
  </g>
  <g>
    <rect style="fill: none; fill-opacity:0; stroke-width: 0.02; stroke: #ffffff" x="420" y="60" width="40" height="40"/>
    <text font-size="12.8" style="fill: #000000;text-anchor:middle;font-family:sans-serif;font-style:normal;font-weight:normal" x="440" y="84.8">
      <tspan x="440" y="84.8">A</tspan>
    </text>
  </g>
  <g>
    <rect style="fill: none; fill-opacity:0; stroke-width: 0.02; stroke: #ffffff" x="460" y="60" width="40" height="40"/>
    <text font-size="12.8" style="fill: #000000;text-anchor:middle;font-family:sans-serif;font-style:normal;font-weight:normal" x="480" y="84.8">
      <tspan x="480" y="84.8">A</tspan>
    </text>
  </g>
  <g>
    <rect style="fill: none; fill-opacity:0; stroke-width: 0.02; stroke: #ffffff" x="500" y="60" width="40" height="40"/>
    <text font-size="12.8" style="fill: #000000;text-anchor:middle;font-family:sans-serif;font-style:normal;font-weight:normal" x="520" y="84.8">
      <tspan x="520" y="84.8">B</tspan>
    </text>
  </g>
  <g>
    <rect style="fill: none; fill-opacity:0; stroke-width: 0.02; stroke: #ffffff" x="540" y="60" width="40" height="40"/>
    <text font-size="12.8" style="fill: #000000;text-anchor:middle;font-family:sans-serif;font-style:normal;font-weight:normal" x="560" y="84.8">
      <tspan x="560" y="84.8">A</tspan>
    </text>
  </g>
  <g>
    <rect style="fill: none; fill-opacity:0; stroke-width: 0.02; stroke: #ffffff" x="580" y="60" width="40" height="40"/>
    <text font-size="12.8" style="fill: #000000;text-anchor:middle;font-family:sans-serif;font-style:normal;font-weight:normal" x="600" y="84.8">
      <tspan x="600" y="84.8">A</tspan>
    </text>
  </g>
  <g>
    <rect style="fill: none; fill-opacity:0; stroke-width: 0.02; stroke: #ffffff" x="620" y="60" width="40" height="40"/>
    <text font-size="12.8" style="fill: #000000;text-anchor:middle;font-family:sans-serif;font-style:normal;font-weight:normal" x="640" y="84.8">
      <tspan x="640" y="84.8">B</tspan>
    </text>
  </g>
  <g>
    <rect style="fill: none; fill-opacity:0; stroke-width: 0.02; stroke: #ffffff" x="660" y="60" width="40" height="40"/>
    <text font-size="12.8" style="fill: #000000;text-anchor:middle;font-family:sans-serif;font-style:normal;font-weight:normal" x="680" y="84.8">
      <tspan x="680" y="84.8">A</tspan>
    </text>
  </g>
  <g>
    <rect style="fill: none; fill-opacity:0; stroke-width: 0.02; stroke: #ffffff" x="700" y="60" width="40" height="40"/>
    <text font-size="12.8" style="fill: #000000;text-anchor:middle;font-family:sans-serif;font-style:normal;font-weight:normal" x="720" y="84.8">
      <tspan x="720" y="84.8">A</tspan>
    </text>
  </g>
  <g>
    <rect style="fill: none; fill-opacity:0; stroke-width: 0.02; stroke: #ffffff" x="340" y="80" width="40" height="40"/>
    <text font-size="12.8" style="fill: #000000;text-anchor:middle;font-family:sans-serif;font-style:normal;font-weight:normal" x="360" y="104.8">
      <tspan x="360" y="104.8">B</tspan>
    </text>
  </g>
  <g>
    <rect style="fill: none; fill-opacity:0; stroke-width: 0.02; stroke: #ffffff" x="380" y="80" width="40" height="40"/>
    <text font-size="12.8" style="fill: #000000;text-anchor:middle;font-family:sans-serif;font-style:normal;font-weight:normal" x="400" y="104.8">
      <tspan x="400" y="104.8">A</tspan>
    </text>
  </g>
  <g>
    <rect style="fill: none; fill-opacity:0; stroke-width: 0.02; stroke: #ffffff" x="420" y="80" width="40" height="40"/>
    <text font-size="12.8" style="fill: #000000;text-anchor:middle;font-family:sans-serif;font-style:normal;font-weight:normal" x="440" y="104.8">
      <tspan x="440" y="104.8">A</tspan>
    </text>
  </g>
  <g>
    <rect style="fill: none; fill-opacity:0; stroke-width: 0.02; stroke: #ffffff" x="460" y="80" width="40" height="40"/>
    <text font-size="12.8" style="fill: #000000;text-anchor:middle;font-family:sans-serif;font-style:normal;font-weight:normal" x="480" y="104.8">
      <tspan x="480" y="104.8">A</tspan>
    </text>
  </g>
  <g>
    <rect style="fill: none; fill-opacity:0; stroke-width: 0.02; stroke: #ffffff" x="380" y="100" width="40" height="40"/>
    <text font-size="12.8" style="fill: #000000;text-anchor:middle;font-family:sans-serif;font-style:normal;font-weight:normal" x="400" y="124.8">
      <tspan x="400" y="124.8">B</tspan>
    </text>
  </g>
  <g>
    <rect style="fill: none; fill-opacity:0; stroke-width: 0.02; stroke: #ffffff" x="420" y="100" width="40" height="40"/>
    <text font-size="12.8" style="fill: #000000;text-anchor:middle;font-family:sans-serif;font-style:normal;font-weight:normal" x="440" y="124.8">
      <tspan x="440" y="124.8">A</tspan>
    </text>
  </g>
  <g>
    <rect style="fill: none; fill-opacity:0; stroke-width: 0.02; stroke: #ffffff" x="460" y="100" width="40" height="40"/>
    <text font-size="12.8" style="fill: #000000;text-anchor:middle;font-family:sans-serif;font-style:normal;font-weight:normal" x="480" y="124.8">
      <tspan x="480" y="124.8">A</tspan>
    </text>
  </g>
  <g>
    <rect style="fill: none; fill-opacity:0; stroke-width: 0.02; stroke: #ffffff" x="500" y="100" width="40" height="40"/>
    <text font-size="12.8" style="fill: #000000;text-anchor:middle;font-family:sans-serif;font-style:normal;font-weight:normal" x="520" y="124.8">
      <tspan x="520" y="124.8">A</tspan>
    </text>
  </g>
  <g>
    <rect style="fill: none; fill-opacity:0; stroke-width: 0.02; stroke: #ffffff" x="420" y="120" width="40" height="40"/>
    <text font-size="12.8" style="fill: #000000;text-anchor:middle;font-family:sans-serif;font-style:normal;font-weight:normal" x="440" y="144.8">
      <tspan x="440" y="144.8">B</tspan>
    </text>
  </g>
  <g>
    <rect style="fill: none; fill-opacity:0; stroke-width: 0.02; stroke: #ffffff" x="460" y="120" width="40" height="40"/>
    <text font-size="12.8" style="fill: #000000;text-anchor:middle;font-family:sans-serif;font-style:normal;font-weight:normal" x="480" y="144.8">
      <tspan x="480" y="144.8">A</tspan>
    </text>
  </g>
  <g>
    <rect style="fill: none; fill-opacity:0; stroke-width: 0.02; stroke: #ffffff" x="500" y="120" width="40" height="40"/>
    <text font-size="12.8" style="fill: #000000;text-anchor:middle;font-family:sans-serif;font-style:normal;font-weight:normal" x="520" y="144.8">
      <tspan x="520" y="144.8">A</tspan>
    </text>
  </g>
  <g>
    <rect style="fill: none; fill-opacity:0; stroke-width: 0.02; stroke: #ffffff" x="540" y="120" width="40" height="40"/>
    <text font-size="12.8" style="fill: #000000;text-anchor:middle;font-family:sans-serif;font-style:normal;font-weight:normal" x="560" y="144.8">
      <tspan x="560" y="144.8">A</tspan>
    </text>
  </g>
  <g>
    <rect style="fill: none; fill-opacity:0; stroke-width: 0.02; stroke: #ffffff" x="460" y="140" width="40" height="40"/>
    <text font-size="12.8" style="fill: #000000;text-anchor:middle;font-family:sans-serif;font-style:normal;font-weight:normal" x="480" y="164.8">
      <tspan x="480" y="164.8">B</tspan>
    </text>
  </g>
  <g>
    <rect style="fill: none; fill-opacity:0; stroke-width: 0.02; stroke: #ffffff" x="500" y="140" width="40" height="40"/>
    <text font-size="12.8" style="fill: #000000;text-anchor:middle;font-family:sans-serif;font-style:normal;font-weight:normal" x="520" y="164.8">
      <tspan x="520" y="164.8">A</tspan>
    </text>
  </g>
  <g>
    <rect style="fill: none; fill-opacity:0; stroke-width: 0.02; stroke: #ffffff" x="540" y="140" width="40" height="40"/>
    <text font-size="12.8" style="fill: #000000;text-anchor:middle;font-family:sans-serif;font-style:normal;font-weight:normal" x="560" y="164.8">
      <tspan x="560" y="164.8">A</tspan>
    </text>
  </g>
  <g>
    <rect style="fill: none; fill-opacity:0; stroke-width: 0.02; stroke: #ffffff" x="580" y="140" width="40" height="40"/>
    <text font-size="12.8" style="fill: #000000;text-anchor:middle;font-family:sans-serif;font-style:normal;font-weight:normal" x="600" y="164.8">
      <tspan x="600" y="164.8">A</tspan>
    </text>
  </g>
  <g>
    <rect style="fill: none; fill-opacity:0; stroke-width: 0.02; stroke: #ffffff" x="500" y="160" width="40" height="40"/>
    <text font-size="12.8" style="fill: #000000;text-anchor:middle;font-family:sans-serif;font-style:normal;font-weight:normal" x="520" y="184.8">
      <tspan x="520" y="184.8">B</tspan>
    </text>
  </g>
  <g>
    <rect style="fill: none; fill-opacity:0; stroke-width: 0.02; stroke: #ffffff" x="540" y="160" width="40" height="40"/>
    <text font-size="12.8" style="fill: #000000;text-anchor:middle;font-family:sans-serif;font-style:normal;font-weight:normal" x="560" y="184.8">
      <tspan x="560" y="184.8">A</tspan>
    </text>
  </g>
  <g>
    <rect style="fill: none; fill-opacity:0; stroke-width: 0.02; stroke: #ffffff" x="580" y="160" width="40" height="40"/>
    <text font-size="12.8" style="fill: #000000;text-anchor:middle;font-family:sans-serif;font-style:normal;font-weight:normal" x="600" y="184.8">
      <tspan x="600" y="184.8">A</tspan>
    </text>
  </g>
  <g>
    <rect style="fill: none; fill-opacity:0; stroke-width: 0.02; stroke: #ffffff" x="620" y="160" width="40" height="40"/>
    <text font-size="12.8" style="fill: #000000;text-anchor:middle;font-family:sans-serif;font-style:normal;font-weight:normal" x="640" y="184.8">
      <tspan x="640" y="184.8">A</tspan>
    </text>
  </g>
  <g>
    <line style="fill: none; fill-opacity:0; stroke-width: 0.2; stroke: #00ff00" x1="300" y1="120" x2="372.276" y2="120"/>
    <polygon style="fill: #00ff00" points="379.776,120 369.776,125 372.276,120 369.776,115 "/>
    <polygon style="fill: none; fill-opacity:0; stroke-width: 0.2; stroke: #00ff00" points="379.776,120 369.776,125 372.276,120 369.776,115 "/>
  </g>
  <g>
    <line style="fill: none; fill-opacity:0; stroke-width: 0.2; stroke: #00ff00" x1="300" y1="160" x2="452.276" y2="160"/>
    <polygon style="fill: #00ff00" points="459.776,160 449.776,165 452.276,160 449.776,155 "/>
    <polygon style="fill: none; fill-opacity:0; stroke-width: 0.2; stroke: #00ff00" points="459.776,160 449.776,165 452.276,160 449.776,155 "/>
  </g>
  <g>
    <line style="fill: none; fill-opacity:0; stroke-width: 0.2; stroke: #00ff00" x1="300" y1="140" x2="412.276" y2="140"/>
    <polygon style="fill: #00ff00" points="419.776,140 409.776,145 412.276,140 409.776,135 "/>
    <polygon style="fill: none; fill-opacity:0; stroke-width: 0.2; stroke: #00ff00" points="419.776,140 409.776,145 412.276,140 409.776,135 "/>
  </g>
  <g>
    <line style="fill: none; fill-opacity:0; stroke-width: 0.2; stroke: #00ff00" x1="300" y1="180" x2="472.276" y2="180"/>
    <polygon style="fill: #00ff00" points="479.776,180 469.776,185 472.276,180 469.776,175 "/>
    <polygon style="fill: none; fill-opacity:0; stroke-width: 0.2; stroke: #00ff00" points="479.776,180 469.776,185 472.276,180 469.776,175 "/>
  </g>
  <text font-size="12.8" style="fill: #000000;text-anchor:start;font-family:sans-serif;font-style:normal;font-weight:normal" x="280" y="120">
    <tspan x="280" y="120">需</tspan>
    <tspan x="280" y="136">要</tspan>
    <tspan x="280" y="152">多</tspan>
    <tspan x="280" y="168">次</tspan>
    <tspan x="280" y="184">尝</tspan>
    <tspan x="280" y="200">试</tspan>
  </text>
  <g>
    <line style="fill: none; fill-opacity:0; stroke-width: 0.02; stroke: #000000" x1="300" y1="80" x2="332.498" y2="80"/>
    <polygon style="fill: #000000" points="339.998,80 329.998,85 332.498,80 329.998,75 "/>
    <polygon style="fill: none; fill-opacity:0; stroke-width: 0.02; stroke: #000000" points="339.998,80 329.998,85 332.498,80 329.998,75 "/>
  </g>
  <text font-size="12.8" style="fill: #000000;text-anchor:start;font-family:sans-serif;font-style:normal;font-weight:normal" x="282" y="84">
    <tspan x="282" y="84">S</tspan>
  </text>
  <g>
    <rect style="fill: none; fill-opacity:0; stroke-width: 0.02; stroke: #ffffff" x="500" y="220" width="40" height="40"/>
    <text font-size="12.8" style="fill: #000000;text-anchor:middle;font-family:sans-serif;font-style:normal;font-weight:normal" x="520" y="244.8">
      <tspan x="520" y="244.8">B</tspan>
    </text>
  </g>
  <g>
    <rect style="fill: none; fill-opacity:0; stroke-width: 0.02; stroke: #ffffff" x="540" y="220" width="40" height="40"/>
    <text font-size="12.8" style="fill: #000000;text-anchor:middle;font-family:sans-serif;font-style:normal;font-weight:normal" x="560" y="244.8">
      <tspan x="560" y="244.8">A</tspan>
    </text>
  </g>
  <g>
    <rect style="fill: none; fill-opacity:0; stroke-width: 0.02; stroke: #ffffff" x="580" y="220" width="40" height="40"/>
    <text font-size="12.8" style="fill: #000000;text-anchor:middle;font-family:sans-serif;font-style:normal;font-weight:normal" x="600" y="244.8">
      <tspan x="600" y="244.8">A</tspan>
    </text>
  </g>
  <g>
    <rect style="fill: none; fill-opacity:0; stroke-width: 0.02; stroke: #ffffff" x="620" y="220" width="40" height="40"/>
    <text font-size="12.8" style="fill: #000000;text-anchor:middle;font-family:sans-serif;font-style:normal;font-weight:normal" x="640" y="244.8">
      <tspan x="640" y="244.8">A</tspan>
    </text>
  </g>
  <g>
    <line style="fill: none; fill-opacity:0; stroke-width: 0.2; stroke: #0000ff" x1="420" y1="230" x2="492.336" y2="239.042"/>
    <polygon style="fill: #0000ff" points="499.778,239.972 489.235,243.693 492.336,239.042 490.476,233.771 "/>
    <polygon style="fill: none; fill-opacity:0; stroke-width: 0.2; stroke: #0000ff" points="499.778,239.972 489.235,243.693 492.336,239.042 490.476,233.771 "/>
  </g>
  <text font-size="12.8" style="fill: #000000;text-anchor:start;font-family:sans-serif;font-style:normal;font-weight:normal" x="300" y="224">
    <tspan x="300" y="224">实际上根据第二次匹配可以直接到这里</tspan>
  </text>
  <g>
    <line style="fill: none; fill-opacity:0; stroke-width: 2; stroke: #ff0000" x1="520" y1="20" x2="520" y2="40.2639"/>
    <polygon style="fill: #ff0000" points="520,47.7639 515,37.7639 520,40.2639 525,37.7639 "/>
    <polygon style="fill: none; fill-opacity:0; stroke-width: 2; stroke: #ff0000" points="520,47.7639 515,37.7639 520,40.2639 525,37.7639 "/>
  </g>
  <text font-size="18.4458" style="fill: #ff0000;text-anchor:start;font-family:sans-serif;font-style:normal;font-weight:normal" x="518" y="10">
    <tspan x="518" y="10">i</tspan>
  </text>
  <g>
    <line style="fill: none; fill-opacity:0; stroke-width: 0.2; stroke: #00ff00" x1="280" y1="100" x2="332.276" y2="100"/>
    <polygon style="fill: #00ff00" points="339.776,100 329.776,105 332.276,100 329.776,95 "/>
    <polygon style="fill: none; fill-opacity:0; stroke-width: 0.2; stroke: #00ff00" points="339.776,100 329.776,105 332.276,100 329.776,95 "/>
  </g>
</svg>
