<?xml version="1.0" encoding="UTF-8" standalone="no"?>
<!DOCTYPE svg PUBLIC "-//W3C//DTD SVG 1.0//EN" "http://www.w3.org/TR/2001/PR-SVG-20010719/DTD/svg10.dtd">
<svg width="37cm" height="11cm" viewBox="282 -9 739 209" xmlns="http://www.w3.org/2000/svg" xmlns:xlink="http://www.w3.org/1999/xlink">
  <g>
    <rect style="fill: none; fill-opacity:0; stroke-width: 0.02; stroke: #ffffff" x="340" y="60" width="40" height="40"/>
    <text font-size="12.8" style="fill: #000000;text-anchor:middle;font-family:sans-serif;font-style:normal;font-weight:normal" x="360" y="84.8">
      <tspan x="360" y="84.8">A</tspan>
    </text>
  </g>
  <g>
    <rect style="fill: none; fill-opacity:0; stroke-width: 0.02; stroke: #ffffff" x="380" y="60" width="40" height="40"/>
    <text font-size="12.8" style="fill: #000000;text-anchor:middle;font-family:sans-serif;font-style:normal;font-weight:normal" x="400" y="84.8">
      <tspan x="400" y="84.8">B</tspan>
    </text>
  </g>
  <g>
    <rect style="fill: none; fill-opacity:0; stroke-width: 0.02; stroke: #ffffff" x="420" y="60" width="40" height="40"/>
    <text font-size="12.8" style="fill: #000000;text-anchor:middle;font-family:sans-serif;font-style:normal;font-weight:normal" x="440" y="84.8">
      <tspan x="440" y="84.8">C</tspan>
    </text>
  </g>
  <g>
    <rect style="fill: none; fill-opacity:0; stroke-width: 0.02; stroke: #ffffff" x="460" y="60" width="40" height="40"/>
    <text font-size="12.8" style="fill: #000000;text-anchor:middle;font-family:sans-serif;font-style:normal;font-weight:normal" x="480" y="84.8">
      <tspan x="480" y="84.8">A</tspan>
    </text>
  </g>
  <g>
    <rect style="fill: none; fill-opacity:0; stroke-width: 0.02; stroke: #ffffff" x="500" y="60" width="40" height="40"/>
    <text font-size="12.8" style="fill: #000000;text-anchor:middle;font-family:sans-serif;font-style:normal;font-weight:normal" x="520" y="84.8">
      <tspan x="520" y="84.8">B</tspan>
    </text>
  </g>
  <g>
    <rect style="fill: none; fill-opacity:0; stroke-width: 0.02; stroke: #ffffff" x="540" y="60" width="40" height="40"/>
    <text font-size="12.8" style="fill: #000000;text-anchor:middle;font-family:sans-serif;font-style:normal;font-weight:normal" x="560" y="84.8">
      <tspan x="560" y="84.8">D</tspan>
    </text>
  </g>
  <g>
    <rect style="fill: none; fill-opacity:0; stroke-width: 0.02; stroke: #ffffff" x="580" y="60" width="40" height="40"/>
    <text font-size="12.8" style="fill: #000000;text-anchor:middle;font-family:sans-serif;font-style:normal;font-weight:normal" x="600" y="84.8">
      <tspan x="600" y="84.8">A</tspan>
    </text>
  </g>
  <g>
    <rect style="fill: none; fill-opacity:0; stroke-width: 0.02; stroke: #ffffff" x="620" y="60" width="40" height="40"/>
    <text font-size="12.8" style="fill: #000000;text-anchor:middle;font-family:sans-serif;font-style:normal;font-weight:normal" x="640" y="84.8">
      <tspan x="640" y="84.8">B</tspan>
    </text>
  </g>
  <g>
    <rect style="fill: none; fill-opacity:0; stroke-width: 0.02; stroke: #ffffff" x="660" y="60" width="40" height="40"/>
    <text font-size="12.8" style="fill: #000000;text-anchor:middle;font-family:sans-serif;font-style:normal;font-weight:normal" x="680" y="84.8">
      <tspan x="680" y="84.8">C</tspan>
    </text>
  </g>
  <g>
    <rect style="fill: none; fill-opacity:0; stroke-width: 0.02; stroke: #ffffff" x="340" y="80" width="40" height="40"/>
    <text font-size="12.8" style="fill: #000000;text-anchor:middle;font-family:sans-serif;font-style:normal;font-weight:normal" x="360" y="104.8">
      <tspan x="360" y="104.8">A</tspan>
    </text>
  </g>
  <g>
    <rect style="fill: none; fill-opacity:0; stroke-width: 0.02; stroke: #ffffff" x="380" y="80" width="40" height="40"/>
    <text font-size="12.8" style="fill: #000000;text-anchor:middle;font-family:sans-serif;font-style:normal;font-weight:normal" x="400" y="104.8">
      <tspan x="400" y="104.8">B</tspan>
    </text>
  </g>
  <g>
    <rect style="fill: none; fill-opacity:0; stroke-width: 0.02; stroke: #ffffff" x="420" y="80" width="40" height="40"/>
    <text font-size="12.8" style="fill: #000000;text-anchor:middle;font-family:sans-serif;font-style:normal;font-weight:normal" x="440" y="104.8">
      <tspan x="440" y="104.8">D</tspan>
    </text>
  </g>
  <g>
    <rect style="fill: none; fill-opacity:0; stroke-width: 0.02; stroke: #ffffff" x="460" y="80" width="40" height="40"/>
    <text font-size="12.8" style="fill: #000000;text-anchor:middle;font-family:sans-serif;font-style:normal;font-weight:normal" x="480" y="104.8">
      <tspan x="480" y="104.8">A</tspan>
    </text>
  </g>
  <g>
    <line style="fill: none; fill-opacity:0; stroke-width: 0.2; stroke: #000000" x1="300" y1="80" x2="332.276" y2="80"/>
    <polygon style="fill: #000000" points="339.776,80 329.776,85 332.276,80 329.776,75 "/>
    <polygon style="fill: none; fill-opacity:0; stroke-width: 0.2; stroke: #000000" points="339.776,80 329.776,85 332.276,80 329.776,75 "/>
  </g>
  <text font-size="12.8" style="fill: #000000;text-anchor:start;font-family:sans-serif;font-style:normal;font-weight:normal" x="282" y="84">
    <tspan x="282" y="84">S</tspan>
  </text>
  <g>
    <line style="fill: none; fill-opacity:0; stroke-width: 2; stroke: #ff0000" x1="560" y1="20" x2="560" y2="40.2639"/>
    <polygon style="fill: #ff0000" points="560,47.7639 555,37.7639 560,40.2639 565,37.7639 "/>
    <polygon style="fill: none; fill-opacity:0; stroke-width: 2; stroke: #ff0000" points="560,47.7639 555,37.7639 560,40.2639 565,37.7639 "/>
  </g>
  <text font-size="18.446" style="fill: #ff0000;text-anchor:start;font-family:sans-serif;font-style:normal;font-weight:normal" x="558" y="10">
    <tspan x="558" y="10">i</tspan>
  </text>
  <g>
    <line style="fill: none; fill-opacity:0; stroke-width: 0.2; stroke: #00ff00" x1="660" y1="100" x2="597.724" y2="100"/>
    <polygon style="fill: #00ff00" points="590.224,100 600.224,95 597.724,100 600.224,105 "/>
    <polygon style="fill: none; fill-opacity:0; stroke-width: 0.2; stroke: #00ff00" points="590.224,100 600.224,95 597.724,100 600.224,105 "/>
  </g>
  <g>
    <rect style="fill: none; fill-opacity:0; stroke-width: 0.02; stroke: #ffffff" x="500" y="80" width="40" height="40"/>
    <text font-size="12.8" style="fill: #000000;text-anchor:middle;font-family:sans-serif;font-style:normal;font-weight:normal" x="520" y="104.8">
      <tspan x="520" y="104.8">B</tspan>
    </text>
  </g>
  <g>
    <rect style="fill: none; fill-opacity:0; stroke-width: 0.02; stroke: #ffffff" x="540" y="80" width="40" height="40"/>
    <text font-size="12.8" style="fill: #000000;text-anchor:middle;font-family:sans-serif;font-style:normal;font-weight:normal" x="560" y="104.8">
      <tspan x="560" y="104.8">C</tspan>
    </text>
  </g>
  <g>
    <line style="fill: none; fill-opacity:0; stroke-width: 0.02; stroke: #ff0000" x1="560" y1="60" x2="487.502" y2="60"/>
    <polygon style="fill: #ff0000" points="480.002,60 490.002,55 487.502,60 490.002,65 "/>
    <polygon style="fill: none; fill-opacity:0; stroke-width: 0.02; stroke: #ff0000" points="480.002,60 490.002,55 487.502,60 490.002,65 "/>
  </g>
  <g>
    <rect style="fill: none; fill-opacity:0; stroke-width: 0.02; stroke: #ffffff" x="580" y="120" width="40" height="40"/>
    <text font-size="12.8" style="fill: #000000;text-anchor:middle;font-family:sans-serif;font-style:normal;font-weight:normal" x="600" y="144.8">
      <tspan x="600" y="144.8">A</tspan>
    </text>
  </g>
  <g>
    <rect style="fill: none; fill-opacity:0; stroke-width: 0.02; stroke: #ffffff" x="620" y="120" width="40" height="40"/>
    <text font-size="12.8" style="fill: #000000;text-anchor:middle;font-family:sans-serif;font-style:normal;font-weight:normal" x="640" y="144.8">
      <tspan x="640" y="144.8">B</tspan>
    </text>
  </g>
  <g>
    <rect style="fill: none; fill-opacity:0; stroke-width: 0.02; stroke: #ffffff" x="660" y="120" width="40" height="40"/>
    <text font-size="12.8" style="fill: #000000;text-anchor:middle;font-family:sans-serif;font-style:normal;font-weight:normal" x="680" y="144.8">
      <tspan x="680" y="144.8">D</tspan>
    </text>
  </g>
  <g>
    <rect style="fill: none; fill-opacity:0; stroke-width: 0.02; stroke: #ffffff" x="700" y="120" width="40" height="40"/>
    <text font-size="12.8" style="fill: #000000;text-anchor:middle;font-family:sans-serif;font-style:normal;font-weight:normal" x="720" y="144.8">
      <tspan x="720" y="144.8">A</tspan>
    </text>
  </g>
  <g>
    <rect style="fill: none; fill-opacity:0; stroke-width: 0.02; stroke: #ffffff" x="740" y="120" width="40" height="40"/>
    <text font-size="12.8" style="fill: #000000;text-anchor:middle;font-family:sans-serif;font-style:normal;font-weight:normal" x="760" y="144.8">
      <tspan x="760" y="144.8">B</tspan>
    </text>
  </g>
  <g>
    <rect style="fill: none; fill-opacity:0; stroke-width: 0.02; stroke: #ffffff" x="780" y="120" width="40" height="40"/>
    <text font-size="12.8" style="fill: #000000;text-anchor:middle;font-family:sans-serif;font-style:normal;font-weight:normal" x="800" y="144.8">
      <tspan x="800" y="144.8">C</tspan>
    </text>
  </g>
  <g>
    <rect style="fill: none; fill-opacity:0; stroke-width: 0.02; stroke: #ffffff" x="700" y="160" width="40" height="40"/>
    <text font-size="12.8" style="fill: #000000;text-anchor:middle;font-family:sans-serif;font-style:normal;font-weight:normal" x="720" y="184.8">
      <tspan x="720" y="184.8">A</tspan>
    </text>
  </g>
  <g>
    <rect style="fill: none; fill-opacity:0; stroke-width: 0.02; stroke: #ffffff" x="740" y="160" width="40" height="40"/>
    <text font-size="12.8" style="fill: #000000;text-anchor:middle;font-family:sans-serif;font-style:normal;font-weight:normal" x="760" y="184.8">
      <tspan x="760" y="184.8">B</tspan>
    </text>
  </g>
  <g>
    <rect style="fill: none; fill-opacity:0; stroke-width: 0.02; stroke: #ffffff" x="780" y="160" width="40" height="40"/>
    <text font-size="12.8" style="fill: #000000;text-anchor:middle;font-family:sans-serif;font-style:normal;font-weight:normal" x="800" y="184.8">
      <tspan x="800" y="184.8">D</tspan>
    </text>
  </g>
  <g>
    <rect style="fill: none; fill-opacity:0; stroke-width: 0.02; stroke: #ffffff" x="820" y="160" width="40" height="40"/>
    <text font-size="12.8" style="fill: #000000;text-anchor:middle;font-family:sans-serif;font-style:normal;font-weight:normal" x="840" y="184.8">
      <tspan x="840" y="184.8">A</tspan>
    </text>
  </g>
  <g>
    <rect style="fill: none; fill-opacity:0; stroke-width: 0.02; stroke: #ffffff" x="860" y="160" width="40" height="40"/>
    <text font-size="12.8" style="fill: #000000;text-anchor:middle;font-family:sans-serif;font-style:normal;font-weight:normal" x="880" y="184.8">
      <tspan x="880" y="184.8">B</tspan>
    </text>
  </g>
  <g>
    <rect style="fill: none; fill-opacity:0; stroke-width: 0.02; stroke: #ffffff" x="900" y="160" width="40" height="40"/>
    <text font-size="12.8" style="fill: #000000;text-anchor:middle;font-family:sans-serif;font-style:normal;font-weight:normal" x="920" y="184.8">
      <tspan x="920" y="184.8">C</tspan>
    </text>
  </g>
  <g>
    <rect style="fill: none; fill-opacity:0; stroke-width: 0.02; stroke: #ffffff" x="700" y="60" width="40" height="40"/>
    <text font-size="12.8" style="fill: #000000;text-anchor:middle;font-family:sans-serif;font-style:normal;font-weight:normal" x="720" y="84.8">
      <tspan x="720" y="84.8">A</tspan>
    </text>
  </g>
  <g>
    <rect style="fill: none; fill-opacity:0; stroke-width: 0.02; stroke: #ffffff" x="740" y="60" width="40" height="40"/>
    <text font-size="12.8" style="fill: #000000;text-anchor:middle;font-family:sans-serif;font-style:normal;font-weight:normal" x="760" y="84.8">
      <tspan x="760" y="84.8">B</tspan>
    </text>
  </g>
  <g>
    <rect style="fill: none; fill-opacity:0; stroke-width: 0.02; stroke: #ffffff" x="780" y="60" width="40" height="40"/>
    <text font-size="12.8" style="fill: #000000;text-anchor:middle;font-family:sans-serif;font-style:normal;font-weight:normal" x="800" y="84.8">
      <tspan x="800" y="84.8">D</tspan>
    </text>
  </g>
  <g>
    <path style="fill: none; fill-opacity:0; stroke-width: 0.2; stroke: #000000" d="M 606.339,164.383 A 100,100 0 0 0 720,160"/>
    <polygon style="fill: #000000" points="600.179,160.134 611.179,162.134 606.179,164.634 605.179,170.134 "/>
    <polygon style="fill: none; fill-opacity:0; stroke-width: 0.2; stroke: #000000" points="600.179,160.134 611.179,162.134 606.179,164.634 605.179,170.134 "/>
  </g>
  <g>
    <line style="fill: none; fill-opacity:0; stroke-width: 0.2; stroke: #00ff00" x1="900" y1="140" x2="837.724" y2="140"/>
    <polygon style="fill: #00ff00" points="830.224,140 840.224,135 837.724,140 840.224,145 "/>
    <polygon style="fill: none; fill-opacity:0; stroke-width: 0.2; stroke: #00ff00" points="830.224,140 840.224,135 837.724,140 840.224,145 "/>
  </g>
  <g>
    <line style="fill: none; fill-opacity:0; stroke-width: 0.2; stroke: #00ff00" x1="1020" y1="180" x2="957.724" y2="180"/>
    <polygon style="fill: #00ff00" points="950.224,180 960.224,175 957.724,180 960.224,185 "/>
    <polygon style="fill: none; fill-opacity:0; stroke-width: 0.2; stroke: #00ff00" points="950.224,180 960.224,175 957.724,180 960.224,185 "/>
  </g>
  <g>
    <path style="fill: none; fill-opacity:0; stroke-width: 0.2; stroke: #000000" d="M 367.331,122.428 A 370,370 0 0 0 600,120"/>
    <polygon style="fill: #000000" points="360.212,120.073 371.293,118.586 367.306,122.505 368.049,128.045 "/>
    <polygon style="fill: none; fill-opacity:0; stroke-width: 0.2; stroke: #000000" points="360.212,120.073 371.293,118.586 367.306,122.505 368.049,128.045 "/>
  </g>
</svg>
