<?xml version="1.0" encoding="UTF-8" standalone="no"?>
<!DOCTYPE svg PUBLIC "-//W3C//DTD SVG 1.0//EN" "http://www.w3.org/TR/2001/PR-SVG-20010719/DTD/svg10.dtd">
<svg width="22cm" height="21cm" viewBox="-32 168 426 409" xmlns="http://www.w3.org/2000/svg" xmlns:xlink="http://www.w3.org/1999/xlink">
  <g>
    <rect style="fill: #ffffff" x="0" y="200" width="40" height="38"/>
    <rect style="fill: none; fill-opacity:0; stroke-width: 2; stroke: #ff0000" x="0" y="200" width="40" height="38"/>
    <text font-size="12.8" style="fill: #000000;text-anchor:middle;font-family:sans-serif;font-style:normal;font-weight:normal" x="20" y="223.8">
      <tspan x="20" y="223.8">61</tspan>
    </text>
  </g>
  <g>
    <rect style="fill: #ffffff" x="40" y="200" width="40" height="38"/>
    <rect style="fill: none; fill-opacity:0; stroke-width: 2; stroke: #ff0000" x="40" y="200" width="40" height="38"/>
    <text font-size="12.8" style="fill: #000000;text-anchor:middle;font-family:sans-serif;font-style:normal;font-weight:normal" x="60" y="223.8">
      <tspan x="60" y="223.8">85</tspan>
    </text>
  </g>
  <g>
    <rect style="fill: #ffffff" x="80" y="200" width="40" height="38"/>
    <rect style="fill: none; fill-opacity:0; stroke-width: 2; stroke: #000000" x="80" y="200" width="40" height="38"/>
    <text font-size="12.8" style="fill: #000000;text-anchor:middle;font-family:sans-serif;font-style:normal;font-weight:normal" x="100" y="223.8">
      <tspan x="100" y="223.8">19</tspan>
    </text>
  </g>
  <g>
    <rect style="fill: #ffffff" x="120" y="200" width="40" height="38"/>
    <rect style="fill: none; fill-opacity:0; stroke-width: 2; stroke: #000000" x="120" y="200" width="40" height="38"/>
    <text font-size="12.8" style="fill: #000000;text-anchor:middle;font-family:sans-serif;font-style:normal;font-weight:normal" x="140" y="223.8">
      <tspan x="140" y="223.8">88</tspan>
    </text>
  </g>
  <g>
    <rect style="fill: #ffffff" x="160" y="200" width="40" height="38"/>
    <rect style="fill: none; fill-opacity:0; stroke-width: 2; stroke: #000000" x="160" y="200" width="40" height="38"/>
    <text font-size="12.8" style="fill: #000000;text-anchor:middle;font-family:sans-serif;font-style:normal;font-weight:normal" x="180" y="223.8">
      <tspan x="180" y="223.8">68</tspan>
    </text>
  </g>
  <g>
    <rect style="fill: #ffffff" x="200" y="200" width="40" height="38"/>
    <rect style="fill: none; fill-opacity:0; stroke-width: 2; stroke: #00ff00" x="200" y="200" width="40" height="38"/>
    <text font-size="12.8" style="fill: #000000;text-anchor:middle;font-family:sans-serif;font-style:normal;font-weight:normal" x="220" y="223.8">
      <tspan x="220" y="223.8">8</tspan>
    </text>
  </g>
  <g>
    <rect style="fill: #ffffff" x="3" y="262" width="40" height="38"/>
    <rect style="fill: none; fill-opacity:0; stroke-width: 2; stroke: #ff0000" x="3" y="262" width="40" height="38"/>
    <text font-size="12.8" style="fill: #000000;text-anchor:middle;font-family:sans-serif;font-style:normal;font-weight:normal" x="23" y="285.8">
      <tspan x="23" y="285.8">61</tspan>
    </text>
  </g>
  <g>
    <rect style="fill: #ffffff" x="43" y="262" width="40" height="38"/>
    <rect style="fill: none; fill-opacity:0; stroke-width: 2; stroke: #ff0000" x="43" y="262" width="40" height="38"/>
    <text font-size="12.8" style="fill: #000000;text-anchor:middle;font-family:sans-serif;font-style:normal;font-weight:normal" x="63" y="285.8">
      <tspan x="63" y="285.8">85</tspan>
    </text>
  </g>
  <g>
    <rect style="fill: #ffffff" x="84" y="274.5" width="40" height="38"/>
    <rect style="fill: none; fill-opacity:0; stroke-width: 2; stroke: #000000" x="84" y="274.5" width="40" height="38"/>
    <text font-size="12.8" style="fill: #000000;text-anchor:middle;font-family:sans-serif;font-style:normal;font-weight:normal" x="104" y="298.3">
      <tspan x="104" y="298.3">19</tspan>
    </text>
  </g>
  <g>
    <rect style="fill: #ffffff" x="123" y="262" width="40" height="38"/>
    <rect style="fill: none; fill-opacity:0; stroke-width: 2; stroke: #000000" x="123" y="262" width="40" height="38"/>
    <text font-size="12.8" style="fill: #000000;text-anchor:middle;font-family:sans-serif;font-style:normal;font-weight:normal" x="143" y="285.8">
      <tspan x="143" y="285.8">88</tspan>
    </text>
  </g>
  <g>
    <rect style="fill: #ffffff" x="12" y="350" width="40" height="38"/>
    <rect style="fill: none; fill-opacity:0; stroke-width: 2; stroke: #ff0000" x="12" y="350" width="40" height="38"/>
    <text font-size="12.8" style="fill: #000000;text-anchor:middle;font-family:sans-serif;font-style:normal;font-weight:normal" x="32" y="373.8">
      <tspan x="32" y="373.8">61</tspan>
    </text>
  </g>
  <g>
    <rect style="fill: #ffffff" x="86" y="349" width="40" height="38"/>
    <rect style="fill: none; fill-opacity:0; stroke-width: 2; stroke: #ff0000" x="86" y="349" width="40" height="38"/>
    <text font-size="12.8" style="fill: #000000;text-anchor:middle;font-family:sans-serif;font-style:normal;font-weight:normal" x="106" y="372.8">
      <tspan x="106" y="372.8">85</tspan>
    </text>
  </g>
  <g>
    <rect style="fill: #ffffff" x="-30.3516" y="348.976" width="40" height="38"/>
    <rect style="fill: none; fill-opacity:0; stroke-width: 2; stroke: #ff0000" x="-30.3516" y="348.976" width="40" height="38"/>
    <text font-size="12.8" style="fill: #000000;text-anchor:middle;font-family:sans-serif;font-style:normal;font-weight:normal" x="-10.3516" y="372.776">
      <tspan x="-10.3516" y="372.776">19</tspan>
    </text>
  </g>
  <g>
    <rect style="fill: #ffffff" x="165.706" y="262.32" width="40" height="38"/>
    <rect style="fill: none; fill-opacity:0; stroke-width: 2; stroke: #000000" x="165.706" y="262.32" width="40" height="38"/>
    <text font-size="12.8" style="fill: #000000;text-anchor:middle;font-family:sans-serif;font-style:normal;font-weight:normal" x="185.706" y="286.12">
      <tspan x="185.706" y="286.12">68</tspan>
    </text>
  </g>
  <g>
    <rect style="fill: #ffffff" x="205.706" y="262.32" width="40" height="38"/>
    <rect style="fill: none; fill-opacity:0; stroke-width: 2; stroke: #00ff00" x="205.706" y="262.32" width="40" height="38"/>
    <text font-size="12.8" style="fill: #000000;text-anchor:middle;font-family:sans-serif;font-style:normal;font-weight:normal" x="225.706" y="286.12">
      <tspan x="225.706" y="286.12">8</tspan>
    </text>
  </g>
  <g>
    <rect style="fill: #ffffff" x="170.206" y="348.418" width="40" height="38"/>
    <rect style="fill: none; fill-opacity:0; stroke-width: 2; stroke: #00ff00" x="170.206" y="348.418" width="40" height="38"/>
    <text font-size="12.8" style="fill: #000000;text-anchor:middle;font-family:sans-serif;font-style:normal;font-weight:normal" x="190.206" y="372.218">
      <tspan x="190.206" y="372.218">68</tspan>
    </text>
  </g>
  <g>
    <rect style="fill: #ffffff" x="210.206" y="348.418" width="40" height="38"/>
    <rect style="fill: none; fill-opacity:0; stroke-width: 2; stroke: #00ff00" x="210.206" y="348.418" width="40" height="38"/>
    <text font-size="12.8" style="fill: #000000;text-anchor:middle;font-family:sans-serif;font-style:normal;font-weight:normal" x="230.206" y="372.218">
      <tspan x="230.206" y="372.218">8</tspan>
    </text>
  </g>
  <g>
    <rect style="fill: #ffffff" x="127.706" y="350.318" width="40" height="38"/>
    <rect style="fill: none; fill-opacity:0; stroke-width: 2; stroke: #00ff00" x="127.706" y="350.318" width="40" height="38"/>
    <text font-size="12.8" style="fill: #000000;text-anchor:middle;font-family:sans-serif;font-style:normal;font-weight:normal" x="147.706" y="374.118">
      <tspan x="147.706" y="374.118">88</tspan>
    </text>
  </g>
  <g>
    <rect style="fill: #ffffff" x="45.0576" y="447.342" width="40" height="38"/>
    <rect style="fill: none; fill-opacity:0; stroke-width: 2; stroke: #ff0000" x="45.0576" y="447.342" width="40" height="38"/>
    <text font-size="12.8" style="fill: #000000;text-anchor:middle;font-family:sans-serif;font-style:normal;font-weight:normal" x="65.0576" y="471.142">
      <tspan x="65.0576" y="471.142">61</tspan>
    </text>
  </g>
  <g>
    <rect style="fill: #ffffff" x="126.058" y="445.342" width="40" height="38"/>
    <rect style="fill: none; fill-opacity:0; stroke-width: 2; stroke: #ff0000" x="126.058" y="445.342" width="40" height="38"/>
    <text font-size="12.8" style="fill: #000000;text-anchor:middle;font-family:sans-serif;font-style:normal;font-weight:normal" x="146.058" y="469.142">
      <tspan x="146.058" y="469.142">85</tspan>
    </text>
  </g>
  <g>
    <rect style="fill: #ffffff" x="2.70606" y="448.318" width="40" height="38"/>
    <rect style="fill: none; fill-opacity:0; stroke-width: 2; stroke: #ff0000" x="2.70606" y="448.318" width="40" height="38"/>
    <text font-size="12.8" style="fill: #000000;text-anchor:middle;font-family:sans-serif;font-style:normal;font-weight:normal" x="22.7061" y="472.118">
      <tspan x="22.7061" y="472.118">19</tspan>
    </text>
  </g>
  <g>
    <rect style="fill: #ffffff" x="167.763" y="445.66" width="40" height="38"/>
    <rect style="fill: none; fill-opacity:0; stroke-width: 2; stroke: #000000" x="167.763" y="445.66" width="40" height="38"/>
    <text font-size="12.8" style="fill: #000000;text-anchor:middle;font-family:sans-serif;font-style:normal;font-weight:normal" x="187.763" y="469.46">
      <tspan x="187.763" y="469.46">88</tspan>
    </text>
  </g>
  <g>
    <rect style="fill: #ffffff" x="83.706" y="446.318" width="40" height="38"/>
    <rect style="fill: none; fill-opacity:0; stroke-width: 2; stroke: #ff0000" x="83.706" y="446.318" width="40" height="38"/>
    <text font-size="12.8" style="fill: #000000;text-anchor:middle;font-family:sans-serif;font-style:normal;font-weight:normal" x="103.706" y="470.118">
      <tspan x="103.706" y="470.118">68</tspan>
    </text>
  </g>
  <g>
    <rect style="fill: #ffffff" x="208.706" y="447.318" width="40" height="38"/>
    <rect style="fill: none; fill-opacity:0; stroke-width: 2; stroke: #000000" x="208.706" y="447.318" width="40" height="38"/>
    <text font-size="12.8" style="fill: #000000;text-anchor:middle;font-family:sans-serif;font-style:normal;font-weight:normal" x="228.706" y="471.118">
      <tspan x="228.706" y="471.118">8</tspan>
    </text>
  </g>
  <g>
    <rect style="fill: #ffffff" x="86.0576" y="535.318" width="40" height="38"/>
    <rect style="fill: none; fill-opacity:0; stroke-width: 2; stroke: #ff0000" x="86.0576" y="535.318" width="40" height="38"/>
    <text font-size="12.8" style="fill: #000000;text-anchor:middle;font-family:sans-serif;font-style:normal;font-weight:normal" x="106.058" y="559.118">
      <tspan x="106.058" y="559.118">61</tspan>
    </text>
  </g>
  <g>
    <rect style="fill: #ffffff" x="167.058" y="533.318" width="40" height="38"/>
    <rect style="fill: none; fill-opacity:0; stroke-width: 2; stroke: #ff0000" x="167.058" y="533.318" width="40" height="38"/>
    <text font-size="12.8" style="fill: #000000;text-anchor:middle;font-family:sans-serif;font-style:normal;font-weight:normal" x="187.058" y="557.118">
      <tspan x="187.058" y="557.118">85</tspan>
    </text>
  </g>
  <g>
    <rect style="fill: #ffffff" x="43.706" y="536.296" width="40" height="38"/>
    <rect style="fill: none; fill-opacity:0; stroke-width: 2; stroke: #ff0000" x="43.706" y="536.296" width="40" height="38"/>
    <text font-size="12.8" style="fill: #000000;text-anchor:middle;font-family:sans-serif;font-style:normal;font-weight:normal" x="63.706" y="560.096">
      <tspan x="63.706" y="560.096">19</tspan>
    </text>
  </g>
  <g>
    <rect style="fill: #ffffff" x="208.764" y="533.638" width="40" height="38"/>
    <rect style="fill: none; fill-opacity:0; stroke-width: 2; stroke: #ff0000" x="208.764" y="533.638" width="40" height="38"/>
    <text font-size="12.8" style="fill: #000000;text-anchor:middle;font-family:sans-serif;font-style:normal;font-weight:normal" x="228.764" y="557.438">
      <tspan x="228.764" y="557.438">88</tspan>
    </text>
  </g>
  <g>
    <rect style="fill: #ffffff" x="124.706" y="534.296" width="40" height="38"/>
    <rect style="fill: none; fill-opacity:0; stroke-width: 2; stroke: #ff0000" x="124.706" y="534.296" width="40" height="38"/>
    <text font-size="12.8" style="fill: #000000;text-anchor:middle;font-family:sans-serif;font-style:normal;font-weight:normal" x="144.706" y="558.096">
      <tspan x="144.706" y="558.096">68</tspan>
    </text>
  </g>
  <g>
    <rect style="fill: #ffffff" x="0.70612" y="537.296" width="40" height="38"/>
    <rect style="fill: none; fill-opacity:0; stroke-width: 2; stroke: #000000" x="0.70612" y="537.296" width="40" height="38"/>
    <text font-size="12.8" style="fill: #000000;text-anchor:middle;font-family:sans-serif;font-style:normal;font-weight:normal" x="20.7061" y="561.096">
      <tspan x="20.7061" y="561.096">8</tspan>
    </text>
  </g>
  <text font-size="12.8" style="fill: #000000;text-anchor:start;font-family:sans-serif;font-style:normal;font-weight:normal" x="-2.79394" y="179.219">
    <tspan x="-2.79394" y="179.219">红色表示已经拍好的数组</tspan>
  </text>
  <text font-size="12.8" style="fill: #000000;text-anchor:start;font-family:sans-serif;font-style:normal;font-weight:normal" x="83.206" y="331.218">
    <tspan x="83.206" y="331.218">把19 插入排好的数组的第一位, 61,65向后移动一位</tspan>
  </text>
  <text font-size="12.8" style="fill: #000000;text-anchor:start;font-family:sans-serif;font-style:normal;font-weight:normal" x="163.706" y="426.118">
    <tspan x="163.706" y="426.118">把68 插入排好的68后边</tspan>
  </text>
  <text font-size="12.8" style="fill: #000000;text-anchor:start;font-family:sans-serif;font-style:normal;font-weight:normal" x="173.706" y="519.118">
    <tspan x="173.706" y="519.118">把8 插入排好的数组的第一位</tspan>
  </text>
  <g>
    <line style="fill: none; fill-opacity:0; stroke-width: 1; stroke: #000000" x1="325.206" y1="271.218" x2="258.347" y2="226.045"/>
    <polygon style="fill: #000000" points="252.132,221.846 263.218,223.301 258.347,226.045 257.619,231.587 "/>
    <polygon style="fill: none; fill-opacity:0; stroke-width: 1; stroke: #000000" points="252.132,221.846 263.218,223.301 258.347,226.045 257.619,231.587 "/>
  </g>
  <g>
    <line style="fill: none; fill-opacity:0; stroke-width: 1; stroke: #000000" x1="320.206" y1="281.218" x2="273.789" y2="276.998"/>
    <polygon style="fill: #000000" points="266.319,276.319 276.731,272.245 273.789,276.998 275.826,282.204 "/>
    <polygon style="fill: none; fill-opacity:0; stroke-width: 1; stroke: #000000" points="266.319,276.319 276.731,272.245 273.789,276.998 275.826,282.204 "/>
  </g>
  <g>
    <line style="fill: none; fill-opacity:0; stroke-width: 1; stroke: #000000" x1="319.206" y1="292.218" x2="271.269" y2="358.244"/>
    <polygon style="fill: #000000" points="266.863,364.313 268.692,353.284 271.269,358.244 276.784,359.159 "/>
    <polygon style="fill: none; fill-opacity:0; stroke-width: 1; stroke: #000000" points="266.863,364.313 268.692,353.284 271.269,358.244 276.784,359.159 "/>
  </g>
  <text font-size="12.8" style="fill: #000000;text-anchor:start;font-family:sans-serif;font-style:normal;font-weight:normal" x="330.206" y="275.218">
    <tspan x="330.206" y="275.218">绿色表示</tspan>
    <tspan x="330.206" y="291.218">暂时不移动</tspan>
  </text>
  <g>
    <path style="fill: none; fill-opacity:0; stroke-width: 0.02; stroke: #000000" d="M 0.455576,314.774 A 80.1315,80.1315 0 0 0 78,313"/>
    <polygon style="fill: #000000" points="-5.99812,311.001 5.11212,312.251 0.293031,315.084 -0.331956,320.639 "/>
    <polygon style="fill: none; fill-opacity:0; stroke-width: 0.02; stroke: #000000" points="-5.99812,311.001 5.11212,312.251 0.293031,315.084 -0.331956,320.639 "/>
  </g>
  <g>
    <path style="fill: none; fill-opacity:0; stroke-width: 0.02; stroke: #000000" d="M 75.5515,390.018 A 90.8882,90.8882 0 0 0 188,393"/>
    <polygon style="fill: #000000" points="70.0016,385.002 80.6405,388.439 75.3539,390.255 73.6354,395.575 "/>
    <polygon style="fill: none; fill-opacity:0; stroke-width: 0.02; stroke: #000000" points="70.0016,385.002 80.6405,388.439 75.3539,390.255 73.6354,395.575 "/>
  </g>
  <g>
    <path style="fill: none; fill-opacity:0; stroke-width: 0.02; stroke: #000000" d="M -16.9685,488.112 A 380.314,380.314 0 0 0 228,492.5"/>
    <polygon style="fill: #000000" points="-23.9979,485.501 -12.8713,484.406 -16.9936,488.182 -16.4463,493.745 "/>
    <polygon style="fill: none; fill-opacity:0; stroke-width: 0.02; stroke: #000000" points="-23.9979,485.501 -12.8713,484.406 -16.9936,488.182 -16.4463,493.745 "/>
  </g>
</svg>
