<?xml version="1.0" encoding="UTF-8" standalone="no"?>
<!DOCTYPE svg PUBLIC "-//W3C//DTD SVG 1.0//EN" "http://www.w3.org/TR/2001/PR-SVG-20010719/DTD/svg10.dtd">
<svg width="16cm" height="18cm" viewBox="106 121 318 360" xmlns="http://www.w3.org/2000/svg" xmlns:xlink="http://www.w3.org/1999/xlink">
  <g>
    <ellipse style="fill: #ffffff" cx="295.636" cy="155.636" rx="15.6357" ry="15.6357"/>
    <ellipse style="fill: none; fill-opacity:0; stroke-width: 1.6; stroke: #ffffff" cx="295.636" cy="155.636" rx="15.6357" ry="15.6357"/>
    <text font-size="15.0594" style="fill: #000000;text-anchor:middle;font-family:sans-serif;font-style:normal;font-weight:normal" x="295.636" y="161.274">
      <tspan x="295.636" y="161.274">R</tspan>
    </text>
  </g>
  <g>
    <ellipse style="fill: #ffffff" cx="308.098" cy="226" rx="15.2415" ry="15.2415"/>
    <ellipse style="fill: none; fill-opacity:0; stroke-width: 1.6; stroke: #ffffff" cx="308.098" cy="226" rx="15.2415" ry="15.2415"/>
    <text font-size="15.0594" style="fill: #000000;text-anchor:middle;font-family:sans-serif;font-style:normal;font-weight:normal" x="308.098" y="231.637">
      <tspan x="308.098" y="231.637">a</tspan>
    </text>
  </g>
  <g>
    <ellipse style="fill: #ffffff" cx="181.219" cy="406.271" rx="15.3474" ry="15.3474"/>
    <ellipse style="fill: none; fill-opacity:0; stroke-width: 1.6; stroke: #ffffff" cx="181.219" cy="406.271" rx="15.3474" ry="15.3474"/>
    <text font-size="15.0594" style="fill: #000000;text-anchor:middle;font-family:sans-serif;font-style:normal;font-weight:normal" x="181.219" y="411.909">
      <tspan x="181.219" y="411.909">l</tspan>
    </text>
  </g>
  <g>
    <ellipse style="fill: #ffffff" cx="320.136" cy="275.5" rx="15" ry="15"/>
    <ellipse style="fill: none; fill-opacity:0; stroke-width: 1.6; stroke: #ffffff" cx="320.136" cy="275.5" rx="15" ry="15"/>
    <text font-size="15.0594" style="fill: #000000;text-anchor:middle;font-family:sans-serif;font-style:normal;font-weight:normal" x="320.136" y="281.138">
      <tspan x="320.136" y="281.138">s</tspan>
    </text>
  </g>
  <g>
    <ellipse style="fill: #ffffff" cx="325.906" cy="337.016" rx="15.3742" ry="15.3742"/>
    <ellipse style="fill: none; fill-opacity:0; stroke-width: 1.6; stroke: #ffffff" cx="325.906" cy="337.016" rx="15.3742" ry="15.3742"/>
    <text font-size="15.0594" style="fill: #000000;text-anchor:middle;font-family:sans-serif;font-style:normal;font-weight:normal" x="325.906" y="342.654">
      <tspan x="325.906" y="342.654">h</tspan>
    </text>
  </g>
  <g>
    <ellipse style="fill: #ffffff" cx="210.826" cy="221.582" rx="15" ry="15"/>
    <ellipse style="fill: none; fill-opacity:0; stroke-width: 1.6; stroke: #ffffff" cx="210.826" cy="221.582" rx="15" ry="15"/>
    <text font-size="15.0594" style="fill: #000000;text-anchor:middle;font-family:sans-serif;font-style:normal;font-weight:normal" x="210.826" y="227.22">
      <tspan x="210.826" y="227.22">s</tspan>
    </text>
  </g>
  <g>
    <ellipse style="fill: #ffffff" cx="181.336" cy="269.036" rx="15.3742" ry="15.3742"/>
    <ellipse style="fill: none; fill-opacity:0; stroke-width: 1.6; stroke: #ffffff" cx="181.336" cy="269.036" rx="15.3742" ry="15.3742"/>
    <text font-size="15.0594" style="fill: #000000;text-anchor:middle;font-family:sans-serif;font-style:normal;font-weight:normal" x="181.336" y="274.674">
      <tspan x="181.336" y="274.674">h</tspan>
    </text>
  </g>
  <g>
    <ellipse style="fill: #ffffff" cx="180.494" cy="335.114" rx="15.2415" ry="15.2415"/>
    <ellipse style="fill: none; fill-opacity:0; stroke-width: 1.6; stroke: #ffffff" cx="180.494" cy="335.114" rx="15.2415" ry="15.2415"/>
    <text font-size="15.0594" style="fill: #000000;text-anchor:middle;font-family:sans-serif;font-style:normal;font-weight:normal" x="180.494" y="340.751">
      <tspan x="180.494" y="340.751">e</tspan>
    </text>
  </g>
  <g>
    <ellipse style="fill: #ffffff" cx="408.03" cy="358.262" rx="15" ry="15"/>
    <ellipse style="fill: none; fill-opacity:0; stroke-width: 1.6; stroke: #ffffff" cx="408.03" cy="358.262" rx="15" ry="15"/>
    <text font-size="15.0594" style="fill: #000000;text-anchor:middle;font-family:sans-serif;font-style:normal;font-weight:normal" x="408.03" y="363.9">
      <tspan x="408.03" y="363.9">r</tspan>
    </text>
  </g>
  <g>
    <ellipse style="fill: #ffffff" cx="379" cy="218.406" rx="15.3742" ry="15.3742"/>
    <ellipse style="fill: none; fill-opacity:0; stroke-width: 1.6; stroke: #ffffff" cx="379" cy="218.406" rx="15.3742" ry="15.3742"/>
    <text font-size="15.0594" style="fill: #000000;text-anchor:middle;font-family:sans-serif;font-style:normal;font-weight:normal" x="379" y="224.044">
      <tspan x="379" y="224.044">h</tspan>
    </text>
  </g>
  <g>
    <ellipse style="fill: #ffffff" cx="391.796" cy="290.422" rx="15.2415" ry="15.2415"/>
    <ellipse style="fill: none; fill-opacity:0; stroke-width: 1.6; stroke: #ffffff" cx="391.796" cy="290.422" rx="15.2415" ry="15.2415"/>
    <text font-size="15.0594" style="fill: #000000;text-anchor:middle;font-family:sans-serif;font-style:normal;font-weight:normal" x="391.796" y="296.059">
      <tspan x="391.796" y="296.059">e</tspan>
    </text>
  </g>
  <line style="fill: none; fill-opacity:0; stroke-width: 1.4; stroke: #000000" x1="295.636" y1="171.271" x2="304.538" y2="210.367"/>
  <line style="fill: none; fill-opacity:0; stroke-width: 1.4; stroke: #000000" x1="311.886" y1="241.577" x2="316.402" y2="260.146"/>
  <line style="fill: none; fill-opacity:0; stroke-width: 1.4; stroke: #000000" x1="321.607" y1="291.179" x2="324.395" y2="320.909"/>
  <line style="fill: none; fill-opacity:0; stroke-width: 1.4; stroke: #000000" x1="180.657" y1="351.131" x2="181.054" y2="390.132"/>
  <line style="fill: none; fill-opacity:0; stroke-width: 1.4; stroke: #000000" x1="282.664" y1="165.722" x2="223.301" y2="211.882"/>
  <line style="fill: none; fill-opacity:0; stroke-width: 1.4; stroke: #000000" x1="202.485" y1="235.004" x2="189.868" y2="255.307"/>
  <line style="fill: none; fill-opacity:0; stroke-width: 1.4; stroke: #000000" x1="181.13" y1="285.209" x2="180.698" y2="319.07"/>
  <line style="fill: none; fill-opacity:0; stroke-width: 1.4; stroke: #000000" x1="308.768" y1="165.524" x2="366.086" y2="208.683"/>
  <line style="fill: none; fill-opacity:0; stroke-width: 1.4; stroke: #000000" x1="381.827" y1="234.318" x2="388.989" y2="274.624"/>
  <line style="fill: none; fill-opacity:0; stroke-width: 1.4; stroke: #000000" x1="395.525" y1="306.007" x2="404.415" y2="343.157"/>
  <g>
    <ellipse style="fill: #ffffff" cx="180.641" cy="464.311" rx="15.3474" ry="15.3474"/>
    <ellipse style="fill: none; fill-opacity:0; stroke-width: 1.6; stroke: #ffffff" cx="180.641" cy="464.311" rx="15.3474" ry="15.3474"/>
    <text font-size="15.0594" style="fill: #000000;text-anchor:middle;font-family:sans-serif;font-style:normal;font-weight:normal" x="180.641" y="469.949">
      <tspan x="180.641" y="469.949">l</tspan>
    </text>
  </g>
  <line style="fill: none; fill-opacity:0; stroke-width: 1.4; stroke: #000000" x1="181.219" y1="421.618" x2="180.641" y2="448.964"/>
  <text font-size="12.8" style="fill: #000000;text-anchor:start;font-family:sans-serif;font-style:normal;font-weight:normal" x="280.182" y="132.068">
    <tspan x="280.182" y="132.068">根节点</tspan>
  </text>
  <g>
    <ellipse style="fill: #ffffff" cx="256.135" cy="336.197" rx="15.0269" ry="15.0269"/>
    <ellipse style="fill: none; fill-opacity:0; stroke-width: 1.6; stroke: #ffffff" cx="256.135" cy="336.197" rx="15.0269" ry="15.0269"/>
    <text font-size="15.0594" style="fill: #000000;text-anchor:middle;font-family:sans-serif;font-style:normal;font-weight:normal" x="256.135" y="341.835">
      <tspan x="256.135" y="341.835">a</tspan>
    </text>
  </g>
  <g>
    <ellipse style="fill: #ffffff" cx="255.18" cy="272.77" rx="15.2415" ry="15.2415"/>
    <ellipse style="fill: none; fill-opacity:0; stroke-width: 1.6; stroke: #ffffff" cx="255.18" cy="272.77" rx="15.2415" ry="15.2415"/>
    <text font-size="15.0594" style="fill: #000000;text-anchor:middle;font-family:sans-serif;font-style:normal;font-weight:normal" x="255.18" y="278.407">
      <tspan x="255.18" y="278.407">e</tspan>
    </text>
  </g>
  <line style="fill: none; fill-opacity:0; stroke-width: 1.4; stroke: #000000" x1="222.196" y1="232.534" x2="249.348" y2="258.688"/>
  <line style="fill: none; fill-opacity:0; stroke-width: 1.4; stroke: #000000" x1="255.421" y1="288.781" x2="255.897" y2="320.386"/>
  <g>
    <path style="fill: none; fill-opacity:0; stroke-width: 0.2; stroke: #00ff00" d="M 225.078,194.213 A 509.178,509.178 0 0 0 270.01,157.432"/>
    <polygon style="fill: #00ff00" points="218.981,198.58 224.276,188.733 225.112,194.26 230.035,196.908 "/>
    <polygon style="fill: none; fill-opacity:0; stroke-width: 0.2; stroke: #00ff00" points="218.981,198.58 224.276,188.733 225.112,194.26 230.035,196.908 "/>
  </g>
  <text font-size="12.8" style="fill: #000000;text-anchor:start;font-family:sans-serif;font-style:normal;font-weight:normal" x="106.117" y="137.954">
    <tspan x="106.117" y="137.954">一条链接,</tspan>
    <tspan x="106.117" y="153.954">该链接指向得到</tspan>
    <tspan x="106.117" y="169.954">子单词查找树包</tspan>
    <tspan x="106.117" y="185.954">含所有以 s 开头的键</tspan>
  </text>
  <text font-size="12.8" style="fill: #000000;text-anchor:start;font-family:sans-serif;font-style:normal;font-weight:normal" x="150.49" y="338.834">
    <tspan x="150.49" y="338.834">0</tspan>
  </text>
  <text font-size="12.8" style="fill: #000000;text-anchor:start;font-family:sans-serif;font-style:normal;font-weight:normal" x="225.286" y="338.062">
    <tspan x="225.286" y="338.062">1</tspan>
  </text>
  <text font-size="12.8" style="fill: #000000;text-anchor:start;font-family:sans-serif;font-style:normal;font-weight:normal" x="295.458" y="343.46">
    <tspan x="295.458" y="343.46">2</tspan>
  </text>
  <text font-size="12.8" style="fill: #000000;text-anchor:start;font-family:sans-serif;font-style:normal;font-weight:normal" x="379.508" y="365.822">
    <tspan x="379.508" y="365.822">3</tspan>
  </text>
  <text font-size="12.8" style="fill: #000000;text-anchor:start;font-family:sans-serif;font-style:normal;font-weight:normal" x="204.968" y="466.192">
    <tspan x="204.968" y="466.192">4</tspan>
  </text>
  <text font-size="12.8" style="fill: #000000;text-anchor:start;font-family:sans-serif;font-style:normal;font-weight:normal" x="246.878" y="457.584">
    <tspan x="246.878" y="457.584">用指向结点的链接</tspan>
    <tspan x="246.878" y="473.584">所对应的字符标记节点</tspan>
  </text>
  <g>
    <line style="fill: none; fill-opacity:0; stroke-width: 0.2; stroke: #0000ff" x1="202.924" y1="354.256" x2="236.154" y2="432.736"/>
    <polygon style="fill: #0000ff" points="239.079,439.642 230.575,432.383 236.154,432.736 239.784,428.484 "/>
    <polygon style="fill: none; fill-opacity:0; stroke-width: 0.2; stroke: #0000ff" points="239.079,439.642 230.575,432.383 236.154,432.736 239.784,428.484 "/>
  </g>
  <g>
    <line style="fill: none; fill-opacity:0; stroke-width: 0.2; stroke: #0000ff" x1="219.244" y1="461.21" x2="233.645" y2="455.552"/>
    <polygon style="fill: #0000ff" points="240.626,452.81 233.147,461.12 233.645,455.552 229.49,451.813 "/>
    <polygon style="fill: none; fill-opacity:0; stroke-width: 0.2; stroke: #0000ff" points="240.626,452.81 233.147,461.12 233.645,455.552 229.49,451.813 "/>
  </g>
  <g>
    <line style="fill: none; fill-opacity:0; stroke-width: 0.2; stroke: #0000ff" x1="242.252" y1="357.34" x2="272.906" y2="422.829"/>
    <polygon style="fill: #0000ff" points="276.085,429.621 267.317,422.684 272.906,422.829 276.374,418.445 "/>
    <polygon style="fill: none; fill-opacity:0; stroke-width: 0.2; stroke: #0000ff" points="276.085,429.621 267.317,422.684 272.906,422.829 276.374,418.445 "/>
  </g>
  <g>
    <line style="fill: none; fill-opacity:0; stroke-width: 0.2; stroke: #0000ff" x1="327.844" y1="355.798" x2="312.171" y2="412.357"/>
    <polygon style="fill: #0000ff" points="310.168,419.585 308.02,408.612 312.171,412.357 317.657,411.283 "/>
    <polygon style="fill: none; fill-opacity:0; stroke-width: 0.2; stroke: #0000ff" points="310.168,419.585 308.02,408.612 312.171,412.357 317.657,411.283 "/>
  </g>
  <g>
    <line style="fill: none; fill-opacity:0; stroke-width: 0.2; stroke: #0000ff" x1="381.05" y1="375.846" x2="347.653" y2="424.239"/>
    <polygon style="fill: #0000ff" points="343.393,430.412 344.958,419.342 347.653,424.239 353.188,425.022 "/>
    <polygon style="fill: none; fill-opacity:0; stroke-width: 0.2; stroke: #0000ff" points="343.393,430.412 344.958,419.342 347.653,424.239 353.188,425.022 "/>
  </g>
</svg>
