<?xml version="1.0" encoding="UTF-8" standalone="no"?>
<!DOCTYPE svg PUBLIC "-//W3C//DTD SVG 1.0//EN" "http://www.w3.org/TR/2001/PR-SVG-20010719/DTD/svg10.dtd">
<svg width="20cm" height="17cm" viewBox="79 42 383 321" xmlns="http://www.w3.org/2000/svg" xmlns:xlink="http://www.w3.org/1999/xlink">
  <g>
    <ellipse style="fill: #ffffff" cx="140" cy="120" rx="20" ry="20"/>
    <ellipse style="fill: none; fill-opacity:0; stroke-width: 0.2; stroke: #000000" cx="140" cy="120" rx="20" ry="20"/>
    <text font-size="12.7998" style="fill: #000000;text-anchor:middle;font-family:sans-serif;font-style:normal;font-weight:normal" x="140" y="124.8">
      <tspan x="140" y="124.8"></tspan>
    </text>
  </g>
  <g>
    <ellipse style="fill: #7f7f7f" cx="440" cy="160" rx="20" ry="20"/>
    <ellipse style="fill: none; fill-opacity:0; stroke-width: 0.2; stroke: #000000" cx="440" cy="160" rx="20" ry="20"/>
    <text font-size="12.7998" style="fill: #000000;text-anchor:middle;font-family:sans-serif;font-style:normal;font-weight:normal" x="440" y="164.8">
      <tspan x="440" y="164.8"></tspan>
    </text>
  </g>
  <g>
    <ellipse style="fill: #ffffff" cx="100" cy="220" rx="20" ry="20"/>
    <ellipse style="fill: none; fill-opacity:0; stroke-width: 0.2; stroke: #000000" cx="100" cy="220" rx="20" ry="20"/>
    <text font-size="12.7998" style="fill: #000000;text-anchor:middle;font-family:sans-serif;font-style:normal;font-weight:normal" x="100" y="224.8">
      <tspan x="100" y="224.8"></tspan>
    </text>
  </g>
  <g>
    <ellipse style="fill: #ffffff" cx="200" cy="160" rx="20" ry="20"/>
    <ellipse style="fill: none; fill-opacity:0; stroke-width: 0.2; stroke: #000000" cx="200" cy="160" rx="20" ry="20"/>
    <text font-size="12.7998" style="fill: #000000;text-anchor:middle;font-family:sans-serif;font-style:normal;font-weight:normal" x="200" y="164.8">
      <tspan x="200" y="164.8"></tspan>
    </text>
  </g>
  <g>
    <ellipse style="fill: #ffffff" cx="280" cy="240" rx="20" ry="20"/>
    <ellipse style="fill: none; fill-opacity:0; stroke-width: 0.2; stroke: #000000" cx="280" cy="240" rx="20" ry="20"/>
    <text font-size="12.7998" style="fill: #000000;text-anchor:middle;font-family:sans-serif;font-style:normal;font-weight:normal" x="280" y="244.8">
      <tspan x="280" y="244.8"></tspan>
    </text>
  </g>
  <g>
    <ellipse style="fill: #7f7f7f" cx="400" cy="240" rx="20" ry="20"/>
    <ellipse style="fill: none; fill-opacity:0; stroke-width: 0.2; stroke: #000000" cx="400" cy="240" rx="20" ry="20"/>
    <text font-size="12.7998" style="fill: #000000;text-anchor:middle;font-family:sans-serif;font-style:normal;font-weight:normal" x="400" y="244.8">
      <tspan x="400" y="244.8"></tspan>
    </text>
  </g>
  <g>
    <ellipse style="fill: #7f7f7f" cx="440" cy="320" rx="20" ry="20"/>
    <ellipse style="fill: none; fill-opacity:0; stroke-width: 0.2; stroke: #000000" cx="440" cy="320" rx="20" ry="20"/>
    <text font-size="12.7998" style="fill: #000000;text-anchor:middle;font-family:sans-serif;font-style:normal;font-weight:normal" x="440" y="324.8">
      <tspan x="440" y="324.8"></tspan>
    </text>
  </g>
  <line style="fill: none; fill-opacity:0; stroke-width: 8; stroke: #000000" x1="107.654" y1="201.522" x2="140" y2="140"/>
  <line style="fill: none; fill-opacity:0; stroke-width: 1.8; stroke: #7f7f7f" x1="116.016" y1="207.988" x2="180" y2="160"/>
  <line style="fill: none; fill-opacity:0; stroke-width: 1.8; stroke: #7f7f7f" x1="119.973" y1="222.219" x2="260.027" y2="237.781"/>
  <line style="fill: none; fill-opacity:0; stroke-width: 8; stroke: #000000" x1="156.714" y1="131.143" x2="183.286" y2="148.857"/>
  <line style="fill: none; fill-opacity:0; stroke-width: 8; stroke: #000000" x1="214.141" y1="174.141" x2="265.859" y2="225.859"/>
  <line style="fill: none; fill-opacity:0; stroke-width: 1.8; stroke: #ff0000" x1="297.979" y1="248.989" x2="422.021" y2="311.011"/>
  <line style="fill: none; fill-opacity:0; stroke-width: 10; stroke: #ff0000" x1="300.105" y1="240" x2="379.895" y2="240"/>
  <line style="fill: none; fill-opacity:0; stroke-width: 8; stroke: #000000" x1="408.989" y1="222.021" x2="431.011" y2="177.979"/>
  <line style="fill: none; fill-opacity:0; stroke-width: 1.8; stroke: #ff0000" x1="159.931" y1="122.657" x2="420.069" y2="157.343"/>
  <line style="fill: none; fill-opacity:0; stroke-width: 1.8; stroke: #ff0000" x1="218.665" y1="167.466" x2="381.335" y2="232.534"/>
  <line style="fill: none; fill-opacity:0; stroke-width: 8; stroke: #000000" x1="408.989" y1="257.979" x2="431.011" y2="302.021"/>
  <line style="fill: none; fill-opacity:0; stroke-width: 1.8; stroke: #ff0000" x1="119.279" y1="225.67" x2="420.721" y2="314.33"/>
  <line style="fill: none; fill-opacity:0; stroke-width: 1.8; stroke: #7f7f7f" x1="440" y1="180.098" x2="440" y2="299.902"/>
  <text font-size="20.1391" style="fill: #e73283;text-anchor:start;font-family:sans-serif;font-style:normal;font-weight:normal" x="180" y="60">
    <tspan x="180" y="60">将图切分为白色顶点和灰色顶点</tspan>
    <tspan x="180" y="85.1742">横切边为红色</tspan>
  </text>
  <text font-size="20.1391" style="fill: #ff0000;text-anchor:start;font-family:sans-serif;font-style:normal;font-weight:normal" x="100" y="360">
    <tspan x="100" y="360">权重最小的横切边肯定属于最小生成树</tspan>
  </text>
  <g>
    <line style="fill: none; fill-opacity:0; stroke-width: 0.8; stroke: #ff0000" x1="320.315" y1="336.001" x2="336.955" y2="257.836"/>
    <polygon style="fill: #ff0000" points="338.517,250.5 341.325,261.322 336.955,257.836 331.544,259.24 "/>
    <polygon style="fill: none; fill-opacity:0; stroke-width: 0.8; stroke: #ff0000" points="338.517,250.5 341.325,261.322 336.955,257.836 331.544,259.24 "/>
  </g>
</svg>
