<?xml version="1.0" encoding="UTF-8" standalone="no"?>
<!DOCTYPE svg PUBLIC "-//W3C//DTD SVG 1.0//EN" "http://www.w3.org/TR/2001/PR-SVG-20010719/DTD/svg10.dtd">
<svg width="6cm" height="6cm" viewBox="308 148 106 104" xmlns="http://www.w3.org/2000/svg" xmlns:xlink="http://www.w3.org/1999/xlink">
  <g>
    <ellipse style="fill: #ffffff" cx="326.5" cy="166.5" rx="17.1228" ry="17.1228"/>
    <ellipse style="fill: none; fill-opacity:0; stroke-width: 1.2; stroke: #000000" cx="326.5" cy="166.5" rx="17.1228" ry="17.1228"/>
    <text font-size="12.7998" style="fill: #000000;text-anchor:middle;font-family:sans-serif;font-style:normal;font-weight:normal" x="326.5" y="171.3">
      <tspan x="326.5" y="171.3">v1</tspan>
    </text>
  </g>
  <g>
    <ellipse style="fill: #ffffff" cx="326.5" cy="234.5" rx="17.1228" ry="17.1228"/>
    <ellipse style="fill: none; fill-opacity:0; stroke-width: 1.2; stroke: #000000" cx="326.5" cy="234.5" rx="17.1228" ry="17.1228"/>
    <text font-size="12.7998" style="fill: #000000;text-anchor:middle;font-family:sans-serif;font-style:normal;font-weight:normal" x="326.5" y="239.3">
      <tspan x="326.5" y="239.3">v3</tspan>
    </text>
  </g>
  <g>
    <ellipse style="fill: #ffffff" cx="396.5" cy="166.5" rx="17.1228" ry="17.1228"/>
    <ellipse style="fill: none; fill-opacity:0; stroke-width: 1.2; stroke: #000000" cx="396.5" cy="166.5" rx="17.1228" ry="17.1228"/>
    <text font-size="12.7998" style="fill: #000000;text-anchor:middle;font-family:sans-serif;font-style:normal;font-weight:normal" x="396.5" y="171.3">
      <tspan x="396.5" y="171.3">v2</tspan>
    </text>
  </g>
  <g>
    <ellipse style="fill: #ffffff" cx="396.5" cy="234.5" rx="17.1228" ry="17.1228"/>
    <ellipse style="fill: none; fill-opacity:0; stroke-width: 1.2; stroke: #000000" cx="396.5" cy="234.5" rx="17.1228" ry="17.1228"/>
    <text font-size="12.7998" style="fill: #000000;text-anchor:middle;font-family:sans-serif;font-style:normal;font-weight:normal" x="396.5" y="239.3">
      <tspan x="396.5" y="239.3">v4</tspan>
    </text>
  </g>
  <line style="fill: none; fill-opacity:0; stroke-width: 2; stroke: #000000" x1="326.5" y1="184.197" x2="326.5" y2="216.803"/>
  <line style="fill: none; fill-opacity:0; stroke-width: 2; stroke: #000000" x1="396.5" y1="216.803" x2="396.5" y2="184.197"/>
  <line style="fill: none; fill-opacity:0; stroke-width: 2; stroke: #000000" x1="339.147" y1="222.215" x2="383.854" y2="178.785"/>
  <line style="fill: none; fill-opacity:0; stroke-width: 2; stroke: #000000" x1="378.778" y1="166.5" x2="344.222" y2="166.5"/>
</svg>
