<?xml version="1.0" encoding="UTF-8" standalone="no"?>
<!DOCTYPE svg PUBLIC "-//W3C//DTD SVG 1.0//EN" "http://www.w3.org/TR/2001/PR-SVG-20010719/DTD/svg10.dtd">
<svg width="13cm" height="18cm" viewBox="-2 198 243 341" xmlns="http://www.w3.org/2000/svg" xmlns:xlink="http://www.w3.org/1999/xlink">
  <g>
    <rect style="fill: #ffffff" x="40" y="200" width="40" height="38"/>
    <rect style="fill: none; fill-opacity:0; stroke-width: 2; stroke: #000000" x="40" y="200" width="40" height="38"/>
    <text font-size="12.8" style="fill: #000000;text-anchor:middle;font-family:sans-serif;font-style:normal;font-weight:normal" x="60" y="223.8">
      <tspan x="60" y="223.8">61</tspan>
    </text>
  </g>
  <g>
    <rect style="fill: #ffffff" x="0" y="200" width="40" height="38"/>
    <rect style="fill: none; fill-opacity:0; stroke-width: 2; stroke: #000000" x="0" y="200" width="40" height="38"/>
    <text font-size="12.8" style="fill: #000000;text-anchor:middle;font-family:sans-serif;font-style:normal;font-weight:normal" x="20" y="223.8">
      <tspan x="20" y="223.8">85</tspan>
    </text>
  </g>
  <g>
    <rect style="fill: #ffffff" x="80" y="200" width="40" height="38"/>
    <rect style="fill: none; fill-opacity:0; stroke-width: 2; stroke: #000000" x="80" y="200" width="40" height="38"/>
    <text font-size="12.8" style="fill: #000000;text-anchor:middle;font-family:sans-serif;font-style:normal;font-weight:normal" x="100" y="223.8">
      <tspan x="100" y="223.8">19</tspan>
    </text>
  </g>
  <g>
    <rect style="fill: #ffffff" x="120" y="200" width="40" height="38"/>
    <rect style="fill: none; fill-opacity:0; stroke-width: 2; stroke: #000000" x="120" y="200" width="40" height="38"/>
    <text font-size="12.8" style="fill: #000000;text-anchor:middle;font-family:sans-serif;font-style:normal;font-weight:normal" x="140" y="223.8">
      <tspan x="140" y="223.8">88</tspan>
    </text>
  </g>
  <g>
    <rect style="fill: #ffffff" x="160" y="200" width="40" height="38"/>
    <rect style="fill: none; fill-opacity:0; stroke-width: 2; stroke: #000000" x="160" y="200" width="40" height="38"/>
    <text font-size="12.8" style="fill: #000000;text-anchor:middle;font-family:sans-serif;font-style:normal;font-weight:normal" x="180" y="223.8">
      <tspan x="180" y="223.8">68</tspan>
    </text>
  </g>
  <g>
    <rect style="fill: #ffffff" x="200" y="200" width="40" height="38"/>
    <rect style="fill: none; fill-opacity:0; stroke-width: 2; stroke: #000000" x="200" y="200" width="40" height="38"/>
    <text font-size="12.8" style="fill: #000000;text-anchor:middle;font-family:sans-serif;font-style:normal;font-weight:normal" x="220" y="223.8">
      <tspan x="220" y="223.8">8</tspan>
    </text>
  </g>
  <g>
    <rect style="fill: #ffffff" x="0" y="260" width="40" height="38"/>
    <rect style="fill: none; fill-opacity:0; stroke-width: 2; stroke: #000000" x="0" y="260" width="40" height="38"/>
    <text font-size="12.8" style="fill: #000000;text-anchor:middle;font-family:sans-serif;font-style:normal;font-weight:normal" x="20" y="283.8">
      <tspan x="20" y="283.8">61</tspan>
    </text>
  </g>
  <g>
    <rect style="fill: #ffffff" x="40" y="260" width="40" height="38"/>
    <rect style="fill: none; fill-opacity:0; stroke-width: 2; stroke: #000000" x="40" y="260" width="40" height="38"/>
    <text font-size="12.8" style="fill: #000000;text-anchor:middle;font-family:sans-serif;font-style:normal;font-weight:normal" x="60" y="283.8">
      <tspan x="60" y="283.8">85</tspan>
    </text>
  </g>
  <g>
    <rect style="fill: #ffffff" x="80" y="260" width="40" height="38"/>
    <rect style="fill: none; fill-opacity:0; stroke-width: 2; stroke: #d8e5e5" x="80" y="260" width="40" height="38"/>
    <text font-size="12.8" style="fill: #7f7f7f;text-anchor:middle;font-family:sans-serif;font-style:normal;font-weight:normal" x="100" y="283.8">
      <tspan x="100" y="283.8">19</tspan>
    </text>
  </g>
  <g>
    <rect style="fill: #ffffff" x="120" y="260" width="40" height="38"/>
    <rect style="fill: none; fill-opacity:0; stroke-width: 2; stroke: #d8e5e5" x="120" y="260" width="40" height="38"/>
    <text font-size="12.8" style="fill: #7f7f7f;text-anchor:middle;font-family:sans-serif;font-style:normal;font-weight:normal" x="140" y="283.8">
      <tspan x="140" y="283.8">88</tspan>
    </text>
  </g>
  <g>
    <rect style="fill: #ffffff" x="160" y="260" width="40" height="38"/>
    <rect style="fill: none; fill-opacity:0; stroke-width: 2; stroke: #d8e5e5" x="160" y="260" width="40" height="38"/>
    <text font-size="12.8" style="fill: #7f7f7f;text-anchor:middle;font-family:sans-serif;font-style:normal;font-weight:normal" x="180" y="283.8">
      <tspan x="180" y="283.8">68</tspan>
    </text>
  </g>
  <g>
    <rect style="fill: #ffffff" x="200" y="260" width="40" height="38"/>
    <rect style="fill: none; fill-opacity:0; stroke-width: 2; stroke: #d8e5e5" x="200" y="260" width="40" height="38"/>
    <text font-size="12.8" style="fill: #7f7f7f;text-anchor:middle;font-family:sans-serif;font-style:normal;font-weight:normal" x="220" y="283.8">
      <tspan x="220" y="283.8">8</tspan>
    </text>
  </g>
  <g>
    <rect style="fill: #ffffff" x="0" y="320" width="40" height="38"/>
    <rect style="fill: none; fill-opacity:0; stroke-width: 2; stroke: #d8e5e5" x="0" y="320" width="40" height="38"/>
    <text font-size="12.8" style="fill: #7f7f7f;text-anchor:middle;font-family:sans-serif;font-style:normal;font-weight:normal" x="20" y="343.8">
      <tspan x="20" y="343.8">61</tspan>
    </text>
  </g>
  <g>
    <rect style="fill: #ffffff" x="40" y="320" width="40" height="38"/>
    <rect style="fill: none; fill-opacity:0; stroke-width: 2; stroke: #d8e5e5" x="40" y="320" width="40" height="38"/>
    <text font-size="12.8" style="fill: #7f7f7f;text-anchor:middle;font-family:sans-serif;font-style:normal;font-weight:normal" x="60" y="343.8">
      <tspan x="60" y="343.8">85</tspan>
    </text>
  </g>
  <g>
    <rect style="fill: #ffffff" x="80" y="320" width="40" height="38"/>
    <rect style="fill: none; fill-opacity:0; stroke-width: 2; stroke: #000000" x="80" y="320" width="40" height="38"/>
    <text font-size="12.8" style="fill: #000000;text-anchor:middle;font-family:sans-serif;font-style:normal;font-weight:normal" x="100" y="343.8">
      <tspan x="100" y="343.8">19</tspan>
    </text>
  </g>
  <g>
    <rect style="fill: #ffffff" x="120" y="320" width="40" height="38"/>
    <rect style="fill: none; fill-opacity:0; stroke-width: 2; stroke: #000000" x="120" y="320" width="40" height="38"/>
    <text font-size="12.8" style="fill: #000000;text-anchor:middle;font-family:sans-serif;font-style:normal;font-weight:normal" x="140" y="343.8">
      <tspan x="140" y="343.8">88</tspan>
    </text>
  </g>
  <g>
    <rect style="fill: #ffffff" x="160" y="320" width="40" height="38"/>
    <rect style="fill: none; fill-opacity:0; stroke-width: 2; stroke: #d8e5e5" x="160" y="320" width="40" height="38"/>
    <text font-size="12.8" style="fill: #7f7f7f;text-anchor:middle;font-family:sans-serif;font-style:normal;font-weight:normal" x="180" y="343.8">
      <tspan x="180" y="343.8">68</tspan>
    </text>
  </g>
  <g>
    <rect style="fill: #ffffff" x="200" y="320" width="40" height="38"/>
    <rect style="fill: none; fill-opacity:0; stroke-width: 2; stroke: #d8e5e5" x="200" y="320" width="40" height="38"/>
    <text font-size="12.8" style="fill: #7f7f7f;text-anchor:middle;font-family:sans-serif;font-style:normal;font-weight:normal" x="220" y="343.8">
      <tspan x="220" y="343.8">8</tspan>
    </text>
  </g>
  <g>
    <rect style="fill: #ffffff" x="40" y="380" width="40" height="38"/>
    <rect style="fill: none; fill-opacity:0; stroke-width: 2; stroke: #000000" x="40" y="380" width="40" height="38"/>
    <text font-size="12.8" style="fill: #000000;text-anchor:middle;font-family:sans-serif;font-style:normal;font-weight:normal" x="60" y="403.8">
      <tspan x="60" y="403.8">61</tspan>
    </text>
  </g>
  <g>
    <rect style="fill: #ffffff" x="80" y="380" width="40" height="38"/>
    <rect style="fill: none; fill-opacity:0; stroke-width: 2; stroke: #000000" x="80" y="380" width="40" height="38"/>
    <text font-size="12.8" style="fill: #000000;text-anchor:middle;font-family:sans-serif;font-style:normal;font-weight:normal" x="100" y="403.8">
      <tspan x="100" y="403.8">85</tspan>
    </text>
  </g>
  <g>
    <rect style="fill: #ffffff" x="0" y="380" width="40" height="38"/>
    <rect style="fill: none; fill-opacity:0; stroke-width: 2; stroke: #000000" x="0" y="380" width="40" height="38"/>
    <text font-size="12.8" style="fill: #000000;text-anchor:middle;font-family:sans-serif;font-style:normal;font-weight:normal" x="20" y="403.8">
      <tspan x="20" y="403.8">19</tspan>
    </text>
  </g>
  <g>
    <rect style="fill: #ffffff" x="120" y="380" width="40" height="38"/>
    <rect style="fill: none; fill-opacity:0; stroke-width: 2; stroke: #000000" x="120" y="380" width="40" height="38"/>
    <text font-size="12.8" style="fill: #000000;text-anchor:middle;font-family:sans-serif;font-style:normal;font-weight:normal" x="140" y="403.8">
      <tspan x="140" y="403.8">88</tspan>
    </text>
  </g>
  <g>
    <rect style="fill: #ffffff" x="160" y="380" width="40" height="38"/>
    <rect style="fill: none; fill-opacity:0; stroke-width: 2; stroke: #d8e5e5" x="160" y="380" width="40" height="38"/>
    <text font-size="12.8" style="fill: #7f7f7f;text-anchor:middle;font-family:sans-serif;font-style:normal;font-weight:normal" x="180" y="403.8">
      <tspan x="180" y="403.8">68</tspan>
    </text>
  </g>
  <g>
    <rect style="fill: #ffffff" x="200" y="380" width="40" height="38"/>
    <rect style="fill: none; fill-opacity:0; stroke-width: 2; stroke: #d8e5e5" x="200" y="380" width="40" height="38"/>
    <text font-size="12.8" style="fill: #7f7f7f;text-anchor:middle;font-family:sans-serif;font-style:normal;font-weight:normal" x="220" y="403.8">
      <tspan x="220" y="403.8">8</tspan>
    </text>
  </g>
  <g>
    <rect style="fill: #ffffff" x="40" y="440" width="40" height="38"/>
    <rect style="fill: none; fill-opacity:0; stroke-width: 2; stroke: #d8e5e5" x="40" y="440" width="40" height="38"/>
    <text font-size="12.8" style="fill: #7f7f7f;text-anchor:middle;font-family:sans-serif;font-style:normal;font-weight:normal" x="60" y="463.8">
      <tspan x="60" y="463.8">61</tspan>
    </text>
  </g>
  <g>
    <rect style="fill: #ffffff" x="80" y="440" width="40" height="38"/>
    <rect style="fill: none; fill-opacity:0; stroke-width: 2; stroke: #d8e5e5" x="80" y="440" width="40" height="38"/>
    <text font-size="12.8" style="fill: #7f7f7f;text-anchor:middle;font-family:sans-serif;font-style:normal;font-weight:normal" x="100" y="463.8">
      <tspan x="100" y="463.8">85</tspan>
    </text>
  </g>
  <g>
    <rect style="fill: #ffffff" x="0" y="440" width="40" height="38"/>
    <rect style="fill: none; fill-opacity:0; stroke-width: 2; stroke: #d8e5e5" x="0" y="440" width="40" height="38"/>
    <text font-size="12.8" style="fill: #7f7f7f;text-anchor:middle;font-family:sans-serif;font-style:normal;font-weight:normal" x="20" y="463.8">
      <tspan x="20" y="463.8">19</tspan>
    </text>
  </g>
  <g>
    <rect style="fill: #ffffff" x="120" y="440" width="40" height="38"/>
    <rect style="fill: none; fill-opacity:0; stroke-width: 2; stroke: #d8e5e5" x="120" y="440" width="40" height="38"/>
    <text font-size="12.8" style="fill: #7f7f7f;text-anchor:middle;font-family:sans-serif;font-style:normal;font-weight:normal" x="140" y="463.8">
      <tspan x="140" y="463.8">88</tspan>
    </text>
  </g>
  <g>
    <rect style="fill: #ffffff" x="200" y="440" width="40" height="38"/>
    <rect style="fill: none; fill-opacity:0; stroke-width: 2; stroke: #000000" x="200" y="440" width="40" height="38"/>
    <text font-size="12.8" style="fill: #000000;text-anchor:middle;font-family:sans-serif;font-style:normal;font-weight:normal" x="220" y="463.8">
      <tspan x="220" y="463.8">68</tspan>
    </text>
  </g>
  <g>
    <rect style="fill: #ffffff" x="160" y="440" width="40" height="38"/>
    <rect style="fill: none; fill-opacity:0; stroke-width: 2; stroke: #000000" x="160" y="440" width="40" height="38"/>
    <text font-size="12.8" style="fill: #000000;text-anchor:middle;font-family:sans-serif;font-style:normal;font-weight:normal" x="180" y="463.8">
      <tspan x="180" y="463.8">8</tspan>
    </text>
  </g>
  <g>
    <rect style="fill: #ffffff" x="80" y="500" width="40" height="38"/>
    <rect style="fill: none; fill-opacity:0; stroke-width: 2; stroke: #000000" x="80" y="500" width="40" height="38"/>
    <text font-size="12.8" style="fill: #000000;text-anchor:middle;font-family:sans-serif;font-style:normal;font-weight:normal" x="100" y="523.8">
      <tspan x="100" y="523.8">61</tspan>
    </text>
  </g>
  <g>
    <rect style="fill: #ffffff" x="160" y="500" width="40" height="38"/>
    <rect style="fill: none; fill-opacity:0; stroke-width: 2; stroke: #000000" x="160" y="500" width="40" height="38"/>
    <text font-size="12.8" style="fill: #000000;text-anchor:middle;font-family:sans-serif;font-style:normal;font-weight:normal" x="180" y="523.8">
      <tspan x="180" y="523.8">85</tspan>
    </text>
  </g>
  <g>
    <rect style="fill: #ffffff" x="40" y="500" width="40" height="38"/>
    <rect style="fill: none; fill-opacity:0; stroke-width: 2; stroke: #000000" x="40" y="500" width="40" height="38"/>
    <text font-size="12.8" style="fill: #000000;text-anchor:middle;font-family:sans-serif;font-style:normal;font-weight:normal" x="60" y="523.8">
      <tspan x="60" y="523.8">19</tspan>
    </text>
  </g>
  <g>
    <rect style="fill: #ffffff" x="200" y="500" width="40" height="38"/>
    <rect style="fill: none; fill-opacity:0; stroke-width: 2; stroke: #000000" x="200" y="500" width="40" height="38"/>
    <text font-size="12.8" style="fill: #000000;text-anchor:middle;font-family:sans-serif;font-style:normal;font-weight:normal" x="220" y="523.8">
      <tspan x="220" y="523.8">88</tspan>
    </text>
  </g>
  <g>
    <rect style="fill: #ffffff" x="120" y="500" width="40" height="38"/>
    <rect style="fill: none; fill-opacity:0; stroke-width: 2; stroke: #000000" x="120" y="500" width="40" height="38"/>
    <text font-size="12.8" style="fill: #000000;text-anchor:middle;font-family:sans-serif;font-style:normal;font-weight:normal" x="140" y="523.8">
      <tspan x="140" y="523.8">68</tspan>
    </text>
  </g>
  <g>
    <rect style="fill: #ffffff" x="0" y="500" width="40" height="38"/>
    <rect style="fill: none; fill-opacity:0; stroke-width: 2; stroke: #000000" x="0" y="500" width="40" height="38"/>
    <text font-size="12.8" style="fill: #000000;text-anchor:middle;font-family:sans-serif;font-style:normal;font-weight:normal" x="20" y="523.8">
      <tspan x="20" y="523.8">8</tspan>
    </text>
  </g>
</svg>
