<?xml version="1.0" encoding="UTF-8" standalone="no"?>
<!DOCTYPE svg PUBLIC "-//W3C//DTD SVG 1.0//EN" "http://www.w3.org/TR/2001/PR-SVG-20010719/DTD/svg10.dtd">
<svg width="27cm" height="29cm" viewBox="-140 147 521 572" xmlns="http://www.w3.org/2000/svg" xmlns:xlink="http://www.w3.org/1999/xlink">
  <g>
    <rect style="fill: #ffffff" x="40" y="200" width="40" height="38"/>
    <rect style="fill: none; fill-opacity:0; stroke-width: 2; stroke: #000000" x="40" y="200" width="40" height="38"/>
    <text font-size="12.8" style="fill: #000000;text-anchor:middle;font-family:sans-serif;font-style:normal;font-weight:normal" x="60" y="223.8">
      <tspan x="60" y="223.8">61</tspan>
    </text>
  </g>
  <g>
    <rect style="fill: #ffffff" x="0" y="200" width="40" height="38"/>
    <rect style="fill: none; fill-opacity:0; stroke-width: 2; stroke: #000000" x="0" y="200" width="40" height="38"/>
    <text font-size="12.8" style="fill: #000000;text-anchor:middle;font-family:sans-serif;font-style:normal;font-weight:normal" x="20" y="223.8">
      <tspan x="20" y="223.8">85</tspan>
    </text>
  </g>
  <g>
    <rect style="fill: #ffffff" x="80" y="200" width="40" height="38"/>
    <rect style="fill: none; fill-opacity:0; stroke-width: 2; stroke: #ff0000" x="80" y="200" width="40" height="38"/>
    <text font-size="12.8" style="fill: #000000;text-anchor:middle;font-family:sans-serif;font-style:normal;font-weight:normal" x="100" y="223.8">
      <tspan x="100" y="223.8">19</tspan>
    </text>
  </g>
  <g>
    <rect style="fill: #ffffff" x="120" y="200" width="40" height="38"/>
    <rect style="fill: none; fill-opacity:0; stroke-width: 2; stroke: #000000" x="120" y="200" width="40" height="38"/>
    <text font-size="12.8" style="fill: #000000;text-anchor:middle;font-family:sans-serif;font-style:normal;font-weight:normal" x="140" y="223.8">
      <tspan x="140" y="223.8">88</tspan>
    </text>
  </g>
  <g>
    <rect style="fill: #ffffff" x="160" y="200" width="40" height="38"/>
    <rect style="fill: none; fill-opacity:0; stroke-width: 2; stroke: #000000" x="160" y="200" width="40" height="38"/>
    <text font-size="12.8" style="fill: #000000;text-anchor:middle;font-family:sans-serif;font-style:normal;font-weight:normal" x="180" y="223.8">
      <tspan x="180" y="223.8">68</tspan>
    </text>
  </g>
  <g>
    <rect style="fill: #ffffff" x="200" y="200" width="40" height="38"/>
    <rect style="fill: none; fill-opacity:0; stroke-width: 2; stroke: #000000" x="200" y="200" width="40" height="38"/>
    <text font-size="12.8" style="fill: #000000;text-anchor:middle;font-family:sans-serif;font-style:normal;font-weight:normal" x="220" y="223.8">
      <tspan x="220" y="223.8">8</tspan>
    </text>
  </g>
  <g>
    <rect style="fill: #ffffff" x="240" y="200" width="40" height="38"/>
    <rect style="fill: none; fill-opacity:0; stroke-width: 2; stroke: #000000" x="240" y="200" width="40" height="38"/>
    <text font-size="12.8" style="fill: #000000;text-anchor:middle;font-family:sans-serif;font-style:normal;font-weight:normal" x="260" y="223.8">
      <tspan x="260" y="223.8">9</tspan>
    </text>
  </g>
  <g>
    <rect style="fill: #ffffff" x="280" y="200" width="40" height="38"/>
    <rect style="fill: none; fill-opacity:0; stroke-width: 2; stroke: #000000" x="280" y="200" width="40" height="38"/>
    <text font-size="12.8" style="fill: #000000;text-anchor:middle;font-family:sans-serif;font-style:normal;font-weight:normal" x="300" y="223.8">
      <tspan x="300" y="223.8">17</tspan>
    </text>
  </g>
  <g>
    <line style="fill: none; fill-opacity:0; stroke-width: 2; stroke: #ff0000" x1="100" y1="160" x2="100" y2="190.264"/>
    <polygon style="fill: #ff0000" points="100,197.764 95,187.764 100,190.264 105,187.764 "/>
    <polygon style="fill: none; fill-opacity:0; stroke-width: 2; stroke: #ff0000" points="100,197.764 95,187.764 100,190.264 105,187.764 "/>
  </g>
  <text font-size="14.4947" style="fill: #ff0000;text-anchor:start;font-family:sans-serif;font-style:normal;font-weight:normal" x="80" y="160">
    <tspan x="80" y="160">基准值</tspan>
  </text>
  <g>
    <rect style="fill: #ffffff" x="280" y="260" width="40" height="38"/>
    <rect style="fill: none; fill-opacity:0; stroke-width: 2; stroke: #000000" x="280" y="260" width="40" height="38"/>
    <text font-size="12.8" style="fill: #000000;text-anchor:middle;font-family:sans-serif;font-style:normal;font-weight:normal" x="300" y="283.8">
      <tspan x="300" y="283.8">61</tspan>
    </text>
  </g>
  <g>
    <rect style="fill: #ffffff" x="240" y="260" width="40" height="38"/>
    <rect style="fill: none; fill-opacity:0; stroke-width: 2; stroke: #000000" x="240" y="260" width="40" height="38"/>
    <text font-size="12.8" style="fill: #000000;text-anchor:middle;font-family:sans-serif;font-style:normal;font-weight:normal" x="260" y="283.8">
      <tspan x="260" y="283.8">85</tspan>
    </text>
  </g>
  <g>
    <rect style="fill: #ffffff" x="120" y="260" width="40" height="38"/>
    <rect style="fill: none; fill-opacity:0; stroke-width: 2; stroke: #ff0000" x="120" y="260" width="40" height="38"/>
    <text font-size="12.8" style="fill: #000000;text-anchor:middle;font-family:sans-serif;font-style:normal;font-weight:normal" x="140" y="283.8">
      <tspan x="140" y="283.8">19</tspan>
    </text>
  </g>
  <g>
    <rect style="fill: #ffffff" x="160" y="260" width="40" height="38"/>
    <rect style="fill: none; fill-opacity:0; stroke-width: 2; stroke: #000000" x="160" y="260" width="40" height="38"/>
    <text font-size="12.8" style="fill: #000000;text-anchor:middle;font-family:sans-serif;font-style:normal;font-weight:normal" x="180" y="283.8">
      <tspan x="180" y="283.8">88</tspan>
    </text>
  </g>
  <g>
    <rect style="fill: #ffffff" x="200" y="260" width="40" height="38"/>
    <rect style="fill: none; fill-opacity:0; stroke-width: 2; stroke: #000000" x="200" y="260" width="40" height="38"/>
    <text font-size="12.8" style="fill: #000000;text-anchor:middle;font-family:sans-serif;font-style:normal;font-weight:normal" x="220" y="283.8">
      <tspan x="220" y="283.8">68</tspan>
    </text>
  </g>
  <g>
    <rect style="fill: #ffffff" x="0" y="260" width="40" height="38"/>
    <rect style="fill: none; fill-opacity:0; stroke-width: 2; stroke: #000000" x="0" y="260" width="40" height="38"/>
    <text font-size="12.8" style="fill: #000000;text-anchor:middle;font-family:sans-serif;font-style:normal;font-weight:normal" x="20" y="283.8">
      <tspan x="20" y="283.8">8</tspan>
    </text>
  </g>
  <g>
    <rect style="fill: #ffffff" x="40" y="260" width="40" height="38"/>
    <rect style="fill: none; fill-opacity:0; stroke-width: 2; stroke: #000000" x="40" y="260" width="40" height="38"/>
    <text font-size="12.8" style="fill: #000000;text-anchor:middle;font-family:sans-serif;font-style:normal;font-weight:normal" x="60" y="283.8">
      <tspan x="60" y="283.8">9</tspan>
    </text>
  </g>
  <g>
    <rect style="fill: #ffffff" x="60" y="360" width="40" height="38"/>
    <rect style="fill: none; fill-opacity:0; stroke-width: 2; stroke: #000000" x="60" y="360" width="40" height="38"/>
    <text font-size="12.8" style="fill: #000000;text-anchor:middle;font-family:sans-serif;font-style:normal;font-weight:normal" x="80" y="383.8">
      <tspan x="80" y="383.8">17</tspan>
    </text>
  </g>
  <g>
    <rect style="fill: #ffffff" x="300" y="360" width="40" height="38"/>
    <rect style="fill: none; fill-opacity:0; stroke-width: 2; stroke: #000000" x="300" y="360" width="40" height="38"/>
    <text font-size="12.8" style="fill: #000000;text-anchor:middle;font-family:sans-serif;font-style:normal;font-weight:normal" x="320" y="383.8">
      <tspan x="320" y="383.8">61</tspan>
    </text>
  </g>
  <g>
    <rect style="fill: #ffffff" x="260" y="360" width="40" height="38"/>
    <rect style="fill: none; fill-opacity:0; stroke-width: 2; stroke: #ff0000" x="260" y="360" width="40" height="38"/>
    <text font-size="12.8" style="fill: #000000;text-anchor:middle;font-family:sans-serif;font-style:normal;font-weight:normal" x="280" y="383.8">
      <tspan x="280" y="383.8">85</tspan>
    </text>
  </g>
  <g>
    <rect style="fill: #ffffff" x="120" y="360" width="40" height="38"/>
    <rect style="fill: none; fill-opacity:0; stroke-width: 2; stroke: #ff0000" x="120" y="360" width="40" height="38"/>
    <text font-size="12.8" style="fill: #000000;text-anchor:middle;font-family:sans-serif;font-style:normal;font-weight:normal" x="140" y="383.8">
      <tspan x="140" y="383.8">19</tspan>
    </text>
  </g>
  <g>
    <rect style="fill: #ffffff" x="180" y="360" width="40" height="38"/>
    <rect style="fill: none; fill-opacity:0; stroke-width: 2; stroke: #000000" x="180" y="360" width="40" height="38"/>
    <text font-size="12.8" style="fill: #000000;text-anchor:middle;font-family:sans-serif;font-style:normal;font-weight:normal" x="200" y="383.8">
      <tspan x="200" y="383.8">88</tspan>
    </text>
  </g>
  <g>
    <rect style="fill: #ffffff" x="220" y="360" width="40" height="38"/>
    <rect style="fill: none; fill-opacity:0; stroke-width: 2; stroke: #000000" x="220" y="360" width="40" height="38"/>
    <text font-size="12.8" style="fill: #000000;text-anchor:middle;font-family:sans-serif;font-style:normal;font-weight:normal" x="240" y="383.8">
      <tspan x="240" y="383.8">68</tspan>
    </text>
  </g>
  <g>
    <rect style="fill: #ffffff" x="-20" y="360" width="40" height="38"/>
    <rect style="fill: none; fill-opacity:0; stroke-width: 2; stroke: #000000" x="-20" y="360" width="40" height="38"/>
    <text font-size="12.8" style="fill: #000000;text-anchor:middle;font-family:sans-serif;font-style:normal;font-weight:normal" x="0" y="383.8">
      <tspan x="0" y="383.8">8</tspan>
    </text>
  </g>
  <g>
    <rect style="fill: #ffffff" x="20" y="360" width="40" height="38"/>
    <rect style="fill: none; fill-opacity:0; stroke-width: 2; stroke: #ff0000" x="20" y="360" width="40" height="38"/>
    <text font-size="12.8" style="fill: #000000;text-anchor:middle;font-family:sans-serif;font-style:normal;font-weight:normal" x="40" y="383.8">
      <tspan x="40" y="383.8">9</tspan>
    </text>
  </g>
  <g>
    <line style="fill: none; fill-opacity:0; stroke-width: 2; stroke: #ff0000" x1="40" y1="320" x2="40" y2="350.264"/>
    <polygon style="fill: #ff0000" points="40,357.764 35,347.764 40,350.264 45,347.764 "/>
    <polygon style="fill: none; fill-opacity:0; stroke-width: 2; stroke: #ff0000" points="40,357.764 35,347.764 40,350.264 45,347.764 "/>
  </g>
  <text font-size="12.7998" style="fill: #ff0000;text-anchor:start;font-family:sans-serif;font-style:normal;font-weight:normal" x="20" y="320">
    <tspan x="20" y="320">基准值</tspan>
  </text>
  <g>
    <line style="fill: none; fill-opacity:0; stroke-width: 2; stroke: #ff0000" x1="280" y1="320" x2="280" y2="350.264"/>
    <polygon style="fill: #ff0000" points="280,357.764 275,347.764 280,350.264 285,347.764 "/>
    <polygon style="fill: none; fill-opacity:0; stroke-width: 2; stroke: #ff0000" points="280,357.764 275,347.764 280,350.264 285,347.764 "/>
  </g>
  <text font-size="12.7998" style="fill: #ff0000;text-anchor:start;font-family:sans-serif;font-style:normal;font-weight:normal" x="260" y="320">
    <tspan x="260" y="320">基准值</tspan>
  </text>
  <g>
    <rect style="fill: #ffffff" x="220" y="420" width="40" height="38"/>
    <rect style="fill: none; fill-opacity:0; stroke-width: 2; stroke: #000000" x="220" y="420" width="40" height="38"/>
    <text font-size="12.8" style="fill: #000000;text-anchor:middle;font-family:sans-serif;font-style:normal;font-weight:normal" x="240" y="443.8">
      <tspan x="240" y="443.8">61</tspan>
    </text>
  </g>
  <g>
    <rect style="fill: #ffffff" x="260" y="420" width="40" height="38"/>
    <rect style="fill: none; fill-opacity:0; stroke-width: 2; stroke: #ff0000" x="260" y="420" width="40" height="38"/>
    <text font-size="12.8" style="fill: #000000;text-anchor:middle;font-family:sans-serif;font-style:normal;font-weight:normal" x="280" y="443.8">
      <tspan x="280" y="443.8">85</tspan>
    </text>
  </g>
  <g>
    <rect style="fill: #ffffff" x="120" y="420" width="40" height="38"/>
    <rect style="fill: none; fill-opacity:0; stroke-width: 2; stroke: #ff0000" x="120" y="420" width="40" height="38"/>
    <text font-size="12.8" style="fill: #000000;text-anchor:middle;font-family:sans-serif;font-style:normal;font-weight:normal" x="140" y="443.8">
      <tspan x="140" y="443.8">19</tspan>
    </text>
  </g>
  <g>
    <rect style="fill: #ffffff" x="300" y="420" width="40" height="38"/>
    <rect style="fill: none; fill-opacity:0; stroke-width: 2; stroke: #000000" x="300" y="420" width="40" height="38"/>
    <text font-size="12.8" style="fill: #000000;text-anchor:middle;font-family:sans-serif;font-style:normal;font-weight:normal" x="320" y="443.8">
      <tspan x="320" y="443.8">88</tspan>
    </text>
  </g>
  <g>
    <rect style="fill: #ffffff" x="180" y="420" width="40" height="38"/>
    <rect style="fill: none; fill-opacity:0; stroke-width: 2; stroke: #000000" x="180" y="420" width="40" height="38"/>
    <text font-size="12.8" style="fill: #000000;text-anchor:middle;font-family:sans-serif;font-style:normal;font-weight:normal" x="200" y="443.8">
      <tspan x="200" y="443.8">68</tspan>
    </text>
  </g>
  <g>
    <rect style="fill: #ffffff" x="-20" y="420" width="40" height="38"/>
    <rect style="fill: none; fill-opacity:0; stroke-width: 2; stroke: #000000" x="-20" y="420" width="40" height="38"/>
    <text font-size="12.8" style="fill: #000000;text-anchor:middle;font-family:sans-serif;font-style:normal;font-weight:normal" x="0" y="443.8">
      <tspan x="0" y="443.8">8</tspan>
    </text>
  </g>
  <g>
    <rect style="fill: #ffffff" x="20" y="420" width="40" height="38"/>
    <rect style="fill: none; fill-opacity:0; stroke-width: 2; stroke: #ff0000" x="20" y="420" width="40" height="38"/>
    <text font-size="12.8" style="fill: #000000;text-anchor:middle;font-family:sans-serif;font-style:normal;font-weight:normal" x="40" y="443.8">
      <tspan x="40" y="443.8">9</tspan>
    </text>
  </g>
  <g>
    <rect style="fill: #ffffff" x="80" y="260" width="40" height="38"/>
    <rect style="fill: none; fill-opacity:0; stroke-width: 2; stroke: #000000" x="80" y="260" width="40" height="38"/>
    <text font-size="12.8" style="fill: #000000;text-anchor:middle;font-family:sans-serif;font-style:normal;font-weight:normal" x="100" y="283.8">
      <tspan x="100" y="283.8">17</tspan>
    </text>
  </g>
  <g>
    <rect style="fill: #ffffff" x="60" y="420" width="40" height="38"/>
    <rect style="fill: none; fill-opacity:0; stroke-width: 2; stroke: #000000" x="60" y="420" width="40" height="38"/>
    <text font-size="12.8" style="fill: #000000;text-anchor:middle;font-family:sans-serif;font-style:normal;font-weight:normal" x="80" y="443.8">
      <tspan x="80" y="443.8">17</tspan>
    </text>
  </g>
  <g>
    <rect style="fill: #ffffff" x="180" y="600" width="40" height="38"/>
    <rect style="fill: none; fill-opacity:0; stroke-width: 2; stroke: #ff0000" x="180" y="600" width="40" height="38"/>
    <text font-size="12.8" style="fill: #000000;text-anchor:middle;font-family:sans-serif;font-style:normal;font-weight:normal" x="200" y="623.8">
      <tspan x="200" y="623.8">61</tspan>
    </text>
  </g>
  <g>
    <rect style="fill: #ffffff" x="280" y="600" width="40" height="38"/>
    <rect style="fill: none; fill-opacity:0; stroke-width: 2; stroke: #ff0000" x="280" y="600" width="40" height="38"/>
    <text font-size="12.8" style="fill: #000000;text-anchor:middle;font-family:sans-serif;font-style:normal;font-weight:normal" x="300" y="623.8">
      <tspan x="300" y="623.8">85</tspan>
    </text>
  </g>
  <g>
    <rect style="fill: #ffffff" x="120" y="600" width="40" height="38"/>
    <rect style="fill: none; fill-opacity:0; stroke-width: 2; stroke: #ff0000" x="120" y="600" width="40" height="38"/>
    <text font-size="12.8" style="fill: #000000;text-anchor:middle;font-family:sans-serif;font-style:normal;font-weight:normal" x="140" y="623.8">
      <tspan x="140" y="623.8">19</tspan>
    </text>
  </g>
  <g>
    <rect style="fill: #ffffff" x="340" y="600" width="40" height="38"/>
    <rect style="fill: none; fill-opacity:0; stroke-width: 2; stroke: #000000" x="340" y="600" width="40" height="38"/>
    <text font-size="12.8" style="fill: #000000;text-anchor:middle;font-family:sans-serif;font-style:normal;font-weight:normal" x="360" y="623.8">
      <tspan x="360" y="623.8">88</tspan>
    </text>
  </g>
  <g>
    <rect style="fill: #ffffff" x="220" y="600" width="40" height="38"/>
    <rect style="fill: none; fill-opacity:0; stroke-width: 2; stroke: #000000" x="220" y="600" width="40" height="38"/>
    <text font-size="12.8" style="fill: #000000;text-anchor:middle;font-family:sans-serif;font-style:normal;font-weight:normal" x="240" y="623.8">
      <tspan x="240" y="623.8">68</tspan>
    </text>
  </g>
  <g>
    <rect style="fill: #ffffff" x="-20" y="600" width="40" height="38"/>
    <rect style="fill: none; fill-opacity:0; stroke-width: 2; stroke: #000000" x="-20" y="600" width="40" height="38"/>
    <text font-size="12.8" style="fill: #000000;text-anchor:middle;font-family:sans-serif;font-style:normal;font-weight:normal" x="0" y="623.8">
      <tspan x="0" y="623.8">8</tspan>
    </text>
  </g>
  <g>
    <rect style="fill: #ffffff" x="20" y="600" width="40" height="38"/>
    <rect style="fill: none; fill-opacity:0; stroke-width: 2; stroke: #ff0000" x="20" y="600" width="40" height="38"/>
    <text font-size="12.8" style="fill: #000000;text-anchor:middle;font-family:sans-serif;font-style:normal;font-weight:normal" x="40" y="623.8">
      <tspan x="40" y="623.8">9</tspan>
    </text>
  </g>
  <g>
    <rect style="fill: #ffffff" x="60" y="600" width="40" height="38"/>
    <rect style="fill: none; fill-opacity:0; stroke-width: 2; stroke: #000000" x="60" y="600" width="40" height="38"/>
    <text font-size="12.8" style="fill: #000000;text-anchor:middle;font-family:sans-serif;font-style:normal;font-weight:normal" x="80" y="623.8">
      <tspan x="80" y="623.8">17</tspan>
    </text>
  </g>
  <g>
    <rect style="fill: #ffffff" x="220" y="540" width="40" height="38"/>
    <rect style="fill: none; fill-opacity:0; stroke-width: 2; stroke: #ff0000" x="220" y="540" width="40" height="38"/>
    <text font-size="12.8" style="fill: #000000;text-anchor:middle;font-family:sans-serif;font-style:normal;font-weight:normal" x="240" y="563.8">
      <tspan x="240" y="563.8">61</tspan>
    </text>
  </g>
  <g>
    <rect style="fill: #ffffff" x="280" y="540" width="40" height="38"/>
    <rect style="fill: none; fill-opacity:0; stroke-width: 2; stroke: #ff0000" x="280" y="540" width="40" height="38"/>
    <text font-size="12.8" style="fill: #000000;text-anchor:middle;font-family:sans-serif;font-style:normal;font-weight:normal" x="300" y="563.8">
      <tspan x="300" y="563.8">85</tspan>
    </text>
  </g>
  <g>
    <rect style="fill: #ffffff" x="120" y="540" width="40" height="38"/>
    <rect style="fill: none; fill-opacity:0; stroke-width: 2; stroke: #ff0000" x="120" y="540" width="40" height="38"/>
    <text font-size="12.8" style="fill: #000000;text-anchor:middle;font-family:sans-serif;font-style:normal;font-weight:normal" x="140" y="563.8">
      <tspan x="140" y="563.8">19</tspan>
    </text>
  </g>
  <g>
    <rect style="fill: #ffffff" x="340" y="540" width="40" height="38"/>
    <rect style="fill: none; fill-opacity:0; stroke-width: 2; stroke: #000000" x="340" y="540" width="40" height="38"/>
    <text font-size="12.8" style="fill: #000000;text-anchor:middle;font-family:sans-serif;font-style:normal;font-weight:normal" x="360" y="563.8">
      <tspan x="360" y="563.8">88</tspan>
    </text>
  </g>
  <g>
    <rect style="fill: #ffffff" x="180" y="540" width="40" height="38"/>
    <rect style="fill: none; fill-opacity:0; stroke-width: 2; stroke: #000000" x="180" y="540" width="40" height="38"/>
    <text font-size="12.8" style="fill: #000000;text-anchor:middle;font-family:sans-serif;font-style:normal;font-weight:normal" x="200" y="563.8">
      <tspan x="200" y="563.8">68</tspan>
    </text>
  </g>
  <g>
    <rect style="fill: #ffffff" x="-20" y="540" width="40" height="38"/>
    <rect style="fill: none; fill-opacity:0; stroke-width: 2; stroke: #000000" x="-20" y="540" width="40" height="38"/>
    <text font-size="12.8" style="fill: #000000;text-anchor:middle;font-family:sans-serif;font-style:normal;font-weight:normal" x="0" y="563.8">
      <tspan x="0" y="563.8">8</tspan>
    </text>
  </g>
  <g>
    <rect style="fill: #ffffff" x="20" y="540" width="40" height="38"/>
    <rect style="fill: none; fill-opacity:0; stroke-width: 2; stroke: #ff0000" x="20" y="540" width="40" height="38"/>
    <text font-size="12.8" style="fill: #000000;text-anchor:middle;font-family:sans-serif;font-style:normal;font-weight:normal" x="40" y="563.8">
      <tspan x="40" y="563.8">9</tspan>
    </text>
  </g>
  <g>
    <rect style="fill: #ffffff" x="60" y="540" width="40" height="38"/>
    <rect style="fill: none; fill-opacity:0; stroke-width: 2; stroke: #000000" x="60" y="540" width="40" height="38"/>
    <text font-size="12.8" style="fill: #000000;text-anchor:middle;font-family:sans-serif;font-style:normal;font-weight:normal" x="80" y="563.8">
      <tspan x="80" y="563.8">17</tspan>
    </text>
  </g>
  <g>
    <line style="fill: none; fill-opacity:0; stroke-width: 2; stroke: #ff0000" x1="240" y1="500" x2="240" y2="530.264"/>
    <polygon style="fill: #ff0000" points="240,537.764 235,527.764 240,530.264 245,527.764 "/>
    <polygon style="fill: none; fill-opacity:0; stroke-width: 2; stroke: #ff0000" points="240,537.764 235,527.764 240,530.264 245,527.764 "/>
  </g>
  <text font-size="12.7998" style="fill: #ff0000;text-anchor:start;font-family:sans-serif;font-style:normal;font-weight:normal" x="220" y="500">
    <tspan x="220" y="500">基准值</tspan>
  </text>
  <g>
    <line style="fill: none; fill-opacity:0; stroke-width: 2; stroke: #ff0000" x1="20" y1="480" x2="-30.2639" y2="480"/>
    <polygon style="fill: #ff0000" points="-37.7639,480 -27.7639,475 -30.2639,480 -27.7639,485 "/>
    <polygon style="fill: none; fill-opacity:0; stroke-width: 2; stroke: #ff0000" points="-37.7639,480 -27.7639,475 -30.2639,480 -27.7639,485 "/>
  </g>
  <text font-size="12.7998" style="fill: #ff0000;text-anchor:start;font-family:sans-serif;font-style:normal;font-weight:normal" x="-24" y="475">
    <tspan x="-24" y="475">小于9</tspan>
  </text>
  <g>
    <line style="fill: none; fill-opacity:0; stroke-width: 2; stroke: #ff0000" x1="60" y1="480" x2="106.264" y2="480"/>
    <polygon style="fill: #ff0000" points="113.764,480 103.764,485 106.264,480 103.764,475 "/>
    <polygon style="fill: none; fill-opacity:0; stroke-width: 2; stroke: #ff0000" points="113.764,480 103.764,485 106.264,480 103.764,475 "/>
  </g>
  <text font-size="12.7998" style="fill: #ff0000;text-anchor:start;font-family:sans-serif;font-style:normal;font-weight:normal" x="60" y="476">
    <tspan x="60" y="476">大于9</tspan>
  </text>
  <g>
    <line style="fill: none; fill-opacity:0; stroke-width: 2; stroke: #ff0000" x1="124" y1="325" x2="73.7361" y2="325"/>
    <polygon style="fill: #ff0000" points="66.2361,325 76.2361,320 73.7361,325 76.2361,330 "/>
    <polygon style="fill: none; fill-opacity:0; stroke-width: 2; stroke: #ff0000" points="66.2361,325 76.2361,320 73.7361,325 76.2361,330 "/>
  </g>
  <text font-size="14.4947" style="fill: #ff0000;text-anchor:start;font-family:sans-serif;font-style:normal;font-weight:normal" x="80" y="320">
    <tspan x="80" y="320">小于19</tspan>
  </text>
  <g>
    <line style="fill: none; fill-opacity:0; stroke-width: 2; stroke: #ff0000" x1="164" y1="325" x2="210.264" y2="325"/>
    <polygon style="fill: #ff0000" points="217.764,325 207.764,330 210.264,325 207.764,320 "/>
    <polygon style="fill: none; fill-opacity:0; stroke-width: 2; stroke: #ff0000" points="217.764,325 207.764,330 210.264,325 207.764,320 "/>
  </g>
  <text font-size="14.4947" style="fill: #ff0000;text-anchor:start;font-family:sans-serif;font-style:normal;font-weight:normal" x="164" y="321">
    <tspan x="164" y="321">大于19</tspan>
  </text>
  <g>
    <rect style="fill: #ffffff" x="160" y="680" width="40" height="38"/>
    <rect style="fill: none; fill-opacity:0; stroke-width: 2; stroke: #ff0000" x="160" y="680" width="40" height="38"/>
    <text font-size="12.8" style="fill: #000000;text-anchor:middle;font-family:sans-serif;font-style:normal;font-weight:normal" x="180" y="703.8">
      <tspan x="180" y="703.8">61</tspan>
    </text>
  </g>
  <g>
    <rect style="fill: #ffffff" x="240" y="680" width="40" height="38"/>
    <rect style="fill: none; fill-opacity:0; stroke-width: 2; stroke: #ff0000" x="240" y="680" width="40" height="38"/>
    <text font-size="12.8" style="fill: #000000;text-anchor:middle;font-family:sans-serif;font-style:normal;font-weight:normal" x="260" y="703.8">
      <tspan x="260" y="703.8">85</tspan>
    </text>
  </g>
  <g>
    <rect style="fill: #ffffff" x="120" y="680" width="40" height="38"/>
    <rect style="fill: none; fill-opacity:0; stroke-width: 2; stroke: #ff0000" x="120" y="680" width="40" height="38"/>
    <text font-size="12.8" style="fill: #000000;text-anchor:middle;font-family:sans-serif;font-style:normal;font-weight:normal" x="140" y="703.8">
      <tspan x="140" y="703.8">19</tspan>
    </text>
  </g>
  <g>
    <rect style="fill: #ffffff" x="280" y="680" width="40" height="38"/>
    <rect style="fill: none; fill-opacity:0; stroke-width: 2; stroke: #000000" x="280" y="680" width="40" height="38"/>
    <text font-size="12.8" style="fill: #000000;text-anchor:middle;font-family:sans-serif;font-style:normal;font-weight:normal" x="300" y="703.8">
      <tspan x="300" y="703.8">88</tspan>
    </text>
  </g>
  <g>
    <rect style="fill: #ffffff" x="200" y="680" width="40" height="38"/>
    <rect style="fill: none; fill-opacity:0; stroke-width: 2; stroke: #000000" x="200" y="680" width="40" height="38"/>
    <text font-size="12.8" style="fill: #000000;text-anchor:middle;font-family:sans-serif;font-style:normal;font-weight:normal" x="220" y="703.8">
      <tspan x="220" y="703.8">68</tspan>
    </text>
  </g>
  <g>
    <rect style="fill: #ffffff" x="0" y="680" width="40" height="38"/>
    <rect style="fill: none; fill-opacity:0; stroke-width: 2; stroke: #000000" x="0" y="680" width="40" height="38"/>
    <text font-size="12.8" style="fill: #000000;text-anchor:middle;font-family:sans-serif;font-style:normal;font-weight:normal" x="20" y="703.8">
      <tspan x="20" y="703.8">8</tspan>
    </text>
  </g>
  <g>
    <rect style="fill: #ffffff" x="40" y="680" width="40" height="38"/>
    <rect style="fill: none; fill-opacity:0; stroke-width: 2; stroke: #ff0000" x="40" y="680" width="40" height="38"/>
    <text font-size="12.8" style="fill: #000000;text-anchor:middle;font-family:sans-serif;font-style:normal;font-weight:normal" x="60" y="703.8">
      <tspan x="60" y="703.8">9</tspan>
    </text>
  </g>
  <g>
    <rect style="fill: #ffffff" x="80" y="680" width="40" height="38"/>
    <rect style="fill: none; fill-opacity:0; stroke-width: 2; stroke: #000000" x="80" y="680" width="40" height="38"/>
    <text font-size="12.8" style="fill: #000000;text-anchor:middle;font-family:sans-serif;font-style:normal;font-weight:normal" x="100" y="703.8">
      <tspan x="100" y="703.8">17</tspan>
    </text>
  </g>
  <text font-size="12.7998" style="fill: #000000;text-anchor:start;font-family:sans-serif;font-style:normal;font-weight:normal" x="-60" y="700">
    <tspan x="-60" y="700">结果</tspan>
  </text>
  <text font-size="18.4458" style="fill: #000000;text-anchor:start;font-family:sans-serif;font-style:normal;font-weight:normal" x="-140" y="280">
    <tspan x="-140" y="280">以基准值切分</tspan>
  </text>
  <g>
    <line style="fill: none; fill-opacity:0; stroke-width: 2; stroke: #000000" x1="-100" y1="300" x2="-65.4006" y2="351.899"/>
    <polygon style="fill: #000000" points="-61.2403,358.139 -70.9476,352.592 -65.4006,351.899 -62.6271,347.045 "/>
    <polygon style="fill: none; fill-opacity:0; stroke-width: 2; stroke: #000000" points="-61.2403,358.139 -70.9476,352.592 -65.4006,351.899 -62.6271,347.045 "/>
  </g>
</svg>
