<?xml version="1.0" encoding="UTF-8" standalone="no"?>
<!DOCTYPE svg PUBLIC "-//W3C//DTD SVG 1.0//EN" "http://www.w3.org/TR/2001/PR-SVG-20010719/DTD/svg10.dtd">
<svg width="8cm" height="4cm" viewBox="334 237 142 79" xmlns="http://www.w3.org/2000/svg" xmlns:xlink="http://www.w3.org/1999/xlink">
  <g>
    <ellipse style="fill: none; fill-opacity:0; stroke-width: 1.2; stroke: #000000" cx="461" cy="295" rx="15" ry="15"/>
    <text font-size="12.8" style="fill: #000000;text-anchor:middle;font-family:sans-serif;font-style:normal;font-weight:normal" x="461" y="299.8">
      <tspan x="461" y="299.8">1</tspan>
    </text>
  </g>
  <g>
    <ellipse style="fill: none; fill-opacity:0; stroke-width: 1.2; stroke: #000000" cx="375" cy="295" rx="15" ry="15"/>
    <text font-size="12.8" style="fill: #000000;text-anchor:middle;font-family:sans-serif;font-style:normal;font-weight:normal" x="375" y="299.8">
      <tspan x="375" y="299.8">0</tspan>
    </text>
  </g>
  <line style="fill: none; fill-opacity:0; stroke-width: 2; stroke: #000000" x1="446" y1="295" x2="390" y2="295"/>
  <path style="fill: none; fill-opacity:0; stroke-width: 2; stroke: #000000" d="M 369.26,281.142 A 19.6713,19.6713 0 1 0 369.26,308.858"/>
  <g>
    <line style="fill: none; fill-opacity:0; stroke-width: 0.4; stroke: #00ff00" x1="352" y1="264" x2="345.71" y2="275.007"/>
    <polygon style="fill: #00ff00" points="344.222,277.612 344.47,273.146 345.71,275.007 347.943,275.131 "/>
    <polygon style="fill: none; fill-opacity:0; stroke-width: 0.4; stroke: #00ff00" points="344.222,277.612 344.47,273.146 345.71,275.007 347.943,275.131 "/>
  </g>
  <text font-size="12.8" style="fill: #000000;text-anchor:start;font-family:sans-serif;font-style:normal;font-weight:normal" x="344" y="262">
    <tspan x="344" y="262">自环</tspan>
  </text>
  <g>
    <path style="fill: none; fill-opacity:0; stroke-width: 2; stroke: #000000" d="M 455.26,281.142 A 51.4605,51.4605 0 0 0 391.735,276.391"/>
    <polygon style="fill: #000000" points="385.891,280.907 389.487,270.321 391.225,275.634 396.518,277.432 "/>
    <polygon style="fill: none; fill-opacity:0; stroke-width: 2; stroke: #000000" points="385.891,280.907 389.487,270.321 391.225,275.634 396.518,277.432 "/>
  </g>
  <g>
    <path style="fill: none; fill-opacity:0; stroke-width: 2; stroke: #000000" d="M 396.497,308.163 A 79.5245,79.5245 0 0 0 455.26,308.858"/>
    <polygon style="fill: #000000" points="389.733,305.037 400.9,305.579 396.271,308.712 396,314.296 "/>
    <polygon style="fill: none; fill-opacity:0; stroke-width: 2; stroke: #000000" points="389.733,305.037 400.9,305.579 396.271,308.712 396,314.296 "/>
  </g>
  <g>
    <line style="fill: none; fill-opacity:0; stroke-width: 0.4; stroke: #ff0000" x1="444" y1="248" x2="422.648" y2="265.793"/>
    <polygon style="fill: #ff0000" points="420.344,267.714 422.136,263.617 422.648,265.793 424.697,266.689 "/>
    <polygon style="fill: none; fill-opacity:0; stroke-width: 0.4; stroke: #ff0000" points="420.344,267.714 422.136,263.617 422.648,265.793 424.697,266.689 "/>
  </g>
  <g>
    <line style="fill: none; fill-opacity:0; stroke-width: 0.4; stroke: #ff0000" x1="448" y1="248" x2="421.764" y2="292.038"/>
    <polygon style="fill: #ff0000" points="420.229,294.616 420.558,290.156 421.764,292.038 423.994,292.203 "/>
    <polygon style="fill: none; fill-opacity:0; stroke-width: 0.4; stroke: #ff0000" points="420.229,294.616 420.558,290.156 421.764,292.038 423.994,292.203 "/>
  </g>
  <g>
    <line style="fill: none; fill-opacity:0; stroke-width: 0.4; stroke: #ff0000" x1="450" y1="248" x2="425.263" y2="310.793"/>
    <polygon style="fill: #ff0000" points="424.164,313.584 423.769,309.129 425.263,310.793 427.491,310.595 "/>
    <polygon style="fill: none; fill-opacity:0; stroke-width: 0.4; stroke: #ff0000" points="424.164,313.584 423.769,309.129 425.263,310.793 427.491,310.595 "/>
  </g>
  <text font-size="12.8" style="fill: #000000;text-anchor:start;font-family:sans-serif;font-style:normal;font-weight:normal" x="424" y="248">
    <tspan x="424" y="248">平行边</tspan>
  </text>
</svg>
