<?xml version="1.0" encoding="UTF-8" standalone="no"?>
<!DOCTYPE svg PUBLIC "-//W3C//DTD SVG 1.0//EN" "http://www.w3.org/TR/2001/PR-SVG-20010719/DTD/svg10.dtd">
<svg width="35cm" height="11cm" viewBox="159 183 682 218" xmlns="http://www.w3.org/2000/svg" xmlns:xlink="http://www.w3.org/1999/xlink">
  <g>
    <rect style="fill: #ffffff" x="160" y="184" width="480" height="38"/>
    <rect style="fill: none; fill-opacity:0; stroke-width: 2; stroke: #000000" x="160" y="184" width="480" height="38"/>
    <text font-size="12.7998" style="fill: #000000;text-anchor:middle;font-family:sans-serif;font-style:normal;font-weight:normal" x="400" y="206">
      <tspan x="400" y="206">堆</tspan>
    </text>
  </g>
  <g>
    <rect style="fill: #ffffff" x="160" y="222" width="280" height="38"/>
    <rect style="fill: none; fill-opacity:0; stroke-width: 2; stroke: #000000" x="160" y="222" width="280" height="38"/>
    <text font-size="12.7998" style="fill: #000000;text-anchor:middle;font-family:sans-serif;font-style:normal;font-weight:normal" x="300" y="245.8">
      <tspan x="300" y="245.8">新生代(Young )</tspan>
    </text>
  </g>
  <g>
    <rect style="fill: #ffffff" x="440" y="222" width="200" height="38"/>
    <rect style="fill: none; fill-opacity:0; stroke-width: 2; stroke: #000000" x="440" y="222" width="200" height="38"/>
    <text font-size="12.7998" style="fill: #000000;text-anchor:middle;font-family:sans-serif;font-style:normal;font-weight:normal" x="540" y="245.8">
      <tspan x="540" y="245.8">老年代(Old)</tspan>
    </text>
  </g>
  <g>
    <rect style="fill: #ffffff" x="640" y="220" width="196" height="38"/>
    <rect style="fill: none; fill-opacity:0; stroke-width: 2; stroke: #000000" x="640" y="220" width="196" height="38"/>
    <text font-size="12.7998" style="fill: #000000;text-anchor:middle;font-family:sans-serif;font-style:normal;font-weight:normal" x="738" y="243.8">
      <tspan x="738" y="243.8">永生代(MetaSpace )</tspan>
    </text>
  </g>
  <g>
    <rect style="fill: #ffffff" x="160" y="260" width="100" height="40"/>
    <rect style="fill: none; fill-opacity:0; stroke-width: 2; stroke: #000000" x="160" y="260" width="100" height="40"/>
    <text font-size="12.7998" style="fill: #000000;text-anchor:middle;font-family:sans-serif;font-style:normal;font-weight:normal" x="210" y="284.8">
      <tspan x="210" y="284.8">Eden </tspan>
    </text>
  </g>
  <g>
    <rect style="fill: #ffffff" x="260" y="260" width="90" height="40"/>
    <rect style="fill: none; fill-opacity:0; stroke-width: 2; stroke: #000000" x="260" y="260" width="90" height="40"/>
    <text font-size="12.7998" style="fill: #000000;text-anchor:middle;font-family:sans-serif;font-style:normal;font-weight:normal" x="305" y="284.8">
      <tspan x="305" y="284.8">Survivor </tspan>
    </text>
  </g>
  <g>
    <rect style="fill: #ffffff" x="350" y="260" width="90" height="40"/>
    <rect style="fill: none; fill-opacity:0; stroke-width: 2; stroke: #000000" x="350" y="260" width="90" height="40"/>
    <text font-size="12.7998" style="fill: #000000;text-anchor:middle;font-family:sans-serif;font-style:normal;font-weight:normal" x="395" y="284.8">
      <tspan x="395" y="284.8">Survivor </tspan>
    </text>
  </g>
  <g>
    <rect style="fill: #ffffff" x="160" y="300" width="100" height="38"/>
    <rect style="fill: none; fill-opacity:0; stroke-width: 2; stroke: #000000" x="160" y="300" width="100" height="38"/>
    <text font-size="12.7998" style="fill: #000000;text-anchor:middle;font-family:sans-serif;font-style:normal;font-weight:normal" x="210" y="323.8">
      <tspan x="210" y="323.8"> Young GC </tspan>
    </text>
  </g>
  <g>
    <rect style="fill: #ffffff" x="260" y="300" width="180" height="38"/>
    <rect style="fill: none; fill-opacity:0; stroke-width: 2; stroke: #000000" x="260" y="300" width="180" height="38"/>
    <text font-size="12.7998" style="fill: #000000;text-anchor:middle;font-family:sans-serif;font-style:normal;font-weight:normal" x="350" y="322">
      <tspan x="350" y="322">复制法</tspan>
    </text>
  </g>
  <g>
    <polyline style="fill: none; fill-opacity:0; stroke-width: 2; stroke: #000000" points="210,338 210,400 350,400 350,348.709 "/>
    <polygon style="fill: #000000" points="350,341.209 355,351.209 350,348.709 345,351.209 "/>
    <polygon style="fill: none; fill-opacity:0; stroke-width: 2; stroke: #000000" points="350,341.209 355,351.209 350,348.709 345,351.209 "/>
  </g>
  <text font-size="12.7998" style="fill: #000000;text-anchor:start;font-family:sans-serif;font-style:normal;font-weight:normal" x="220" y="380">
    <tspan x="220" y="380">剩余存活的对象转移</tspan>
  </text>
  <g>
    <rect style="fill: #ffffff" x="440" y="300" width="200" height="38"/>
    <rect style="fill: none; fill-opacity:0; stroke-width: 2; stroke: #000000" x="440" y="300" width="200" height="38"/>
    <text font-size="12.7998" style="fill: #000000;text-anchor:middle;font-family:sans-serif;font-style:normal;font-weight:normal" x="540" y="323.8">
      <tspan x="540" y="323.8">Major GC</tspan>
    </text>
  </g>
  <g>
    <polyline style="fill: none; fill-opacity:0; stroke-width: 2; stroke: #000000" points="395,338 395,398.273 540,398.273 540,347.736 "/>
    <polygon style="fill: #000000" points="540,340.236 545,350.236 540,347.736 535,350.236 "/>
    <polygon style="fill: none; fill-opacity:0; stroke-width: 2; stroke: #000000" points="540,340.236 545,350.236 540,347.736 535,350.236 "/>
  </g>
  <g>
    <rect style="fill: #ffffff" x="640" y="184" width="200" height="38"/>
    <rect style="fill: none; fill-opacity:0; stroke-width: 2; stroke: #000000" x="640" y="184" width="200" height="38"/>
    <text font-size="12.7998" style="fill: #000000;text-anchor:middle;font-family:sans-serif;font-style:normal;font-weight:normal" x="740" y="207.8">
      <tspan x="740" y="207.8"> Perm 区</tspan>
    </text>
  </g>
</svg>
