<?xml version="1.0" encoding="UTF-8" standalone="no"?>
<!DOCTYPE svg PUBLIC "-//W3C//DTD SVG 1.0//EN" "http://www.w3.org/TR/2001/PR-SVG-20010719/DTD/svg10.dtd">
<svg width="31cm" height="5cm" viewBox="306 159 614 81" xmlns="http://www.w3.org/2000/svg" xmlns:xlink="http://www.w3.org/1999/xlink">
  <g>
    <rect style="fill: #ffffff" x="308" y="160" width="212" height="40"/>
    <rect style="fill: none; fill-opacity:0; stroke-width: 2; stroke: #000000" x="308" y="160" width="212" height="40"/>
    <text font-size="12.7998" style="fill: #000000;text-anchor:middle;font-family:sans-serif;font-style:normal;font-weight:normal" x="414" y="184.8">
      <tspan x="414" y="184.8">对象头(Header)</tspan>
    </text>
  </g>
  <g>
    <rect style="fill: #ffffff" x="308" y="200" width="135.85" height="38"/>
    <rect style="fill: none; fill-opacity:0; stroke-width: 2; stroke: #000000" x="308" y="200" width="135.85" height="38"/>
    <text font-size="12.7998" style="fill: #000000;text-anchor:middle;font-family:sans-serif;font-style:normal;font-weight:normal" x="375.925" y="223.8">
      <tspan x="375.925" y="223.8">markWord 标记字段</tspan>
    </text>
  </g>
  <g>
    <rect style="fill: #ffffff" x="440" y="200" width="80" height="38"/>
    <rect style="fill: none; fill-opacity:0; stroke-width: 2; stroke: #000000" x="440" y="200" width="80" height="38"/>
    <text font-size="12.7998" style="fill: #000000;text-anchor:middle;font-family:sans-serif;font-style:normal;font-weight:normal" x="480" y="222">
      <tspan x="480" y="222">对象指针</tspan>
    </text>
  </g>
  <g>
    <rect style="fill: #ffffff" x="520" y="160" width="200" height="40"/>
    <rect style="fill: none; fill-opacity:0; stroke-width: 2; stroke: #000000" x="520" y="160" width="200" height="40"/>
    <text font-size="12.7998" style="fill: #000000;text-anchor:middle;font-family:sans-serif;font-style:normal;font-weight:normal" x="620" y="184.8">
      <tspan x="620" y="184.8">实例数据(Instance Data)</tspan>
    </text>
  </g>
  <g>
    <rect style="fill: #ffffff" x="520" y="200" width="200" height="38"/>
    <rect style="fill: none; fill-opacity:0; stroke-width: 2; stroke: #000000" x="520" y="200" width="200" height="38"/>
    <text font-size="12.7998" style="fill: #000000;text-anchor:middle;font-family:sans-serif;font-style:normal;font-weight:normal" x="620" y="223.8">
      <tspan x="620" y="223.8">对象成员变量(没有static变量)</tspan>
    </text>
  </g>
  <g>
    <rect style="fill: #ffffff" x="720" y="160" width="200" height="40"/>
    <rect style="fill: none; fill-opacity:0; stroke-width: 2; stroke: #000000" x="720" y="160" width="200" height="40"/>
    <text font-size="12.7998" style="fill: #000000;text-anchor:middle;font-family:sans-serif;font-style:normal;font-weight:normal" x="820" y="184.8">
      <tspan x="820" y="184.8">对齐填充(Padding)</tspan>
    </text>
  </g>
  <g>
    <rect style="fill: #ffffff" x="720" y="200" width="200" height="38"/>
    <rect style="fill: none; fill-opacity:0; stroke-width: 2; stroke: #000000" x="720" y="200" width="200" height="38"/>
    <text font-size="12.7998" style="fill: #000000;text-anchor:middle;font-family:sans-serif;font-style:normal;font-weight:normal" x="820" y="223.8">
      <tspan x="820" y="223.8">对齐内存(可选, 按8字节对齐)</tspan>
    </text>
  </g>
</svg>
